<svg id="Capa_1" enable-background="new 0 0 512 512" height="512" viewBox="0 0 512 512" width="512" xmlns="http://www.w3.org/2000/svg"><g><g id="_x3C_Group_x3E__65_"><path d="m382.886 504.5h79.805c11.046 0 20-8.954 20-20v-457c0-11.046-8.954-20-20-20h-79.805z" fill="#9ad8a7"/><path d="m484.184 416-43.872.362-2.043-82.468 25.177-6.394h24c5.523 0 10 4.477 10 10v62l-3.262 6.5c0 5.523-4.477 10-10 10z" fill="#f7e365"/><path d="m497.447 399.5v10c0 5.523-4.477 10-10 10h-54v-92h30v67c0 2.761 2.239 5 5 5z" fill="#f4d242"/><path d="m381.992 458.068 39.695 14.932h6.111c8.284 0 15-6.716 15-15v-403.766c0-8.284-6.716-15-15-15h-6.111l-39.695 9.979z" fill="#f7f9fa"/><path d="m381.997 39.23h39.69v433.77h-39.69z" fill="#e9edf1"/><path d="m437.797 198.064-37.826 2.298-3.574-84 25.29-3.862h23.76c5.523 0 10 4.477 10 10v58.713l-7.649 6.851c-.001 5.523-4.478 10-10.001 10z" fill="#ff8086"/><path d="m401.447 112.5h20.24v92h-20.24z" fill="#e5646e"/><path d="m445.447 184.5h-15.76c-4.418 0-8-3.582-8-8v-64h-20.24l-23.688 37.627 23.688 54.373h20.24 23.76c5.523 0 10-4.477 10-10v-20c0 5.52-4.48 10-10 10z" fill="#e5646e"/><path d="m401.687 27.5v457c0 11.05-24.69 13.309-35.74 13.309l-290.244-4.809c-11.05 0-20-8.95-20-20l5.204-433.77c0-11.05-.681-31.73 10.369-31.73h310.41c11.051 0 20.001 8.95 20.001 20z" fill="#b3e59f"/><path d="m401.687 484.5c0 11.05-8.95 20-20 20h-310.41c-11.046 0-20-8.954-20-20v-457c0-11.05 8.95-20 20-20v467c0 5.523 4.477 10 10 10z" fill="#9ad8a7"/><path d="m365.946 216c0 38.303-18.021 72.397-46.047 94.266-20.264 15.812-46.476 20.308-74.171 20.308-65.998 0-109.502-47.213-109.502-113.211 0-24.542-1.882-48.72 10.806-67.698 21.432-32.056 57.958-53.165 99.413-53.165 65.999 0 119.501 53.502 119.501 119.5z" fill="#f7f9fa"/><path d="m341.037 289.02c-21.84 28.27-56.09 46.48-94.59 46.48-66 0-119.5-53.5-119.5-119.5 0-35.91 15.84-68.12 40.91-90.02-15.62 20.19-24.91 45.52-24.91 73.02 0 66 53.5 119.5 119.5 119.5 30.09 0 57.58-11.12 78.59-29.48z" fill="#e9edf1"/><path d="m257.83 241.971 20.545 4.054 9.817 3.817c7.631 2.959 13.053 9.83 14.156 17.941l1.147 10.058c.436 3.823-2.534 7.182-6.382 7.218l-89.606.833-6.94-1.441c-3.899.036-6.948-3.353-6.501-7.226l1.268-10.991c1.103-8.11 7.56-11.849 15.191-14.809l22.66-12.574z" fill="#f7e365"/><path d="m278.377 246.02-18.45-7.17h-26.74l-19.57 7.58c.001.001.002.002.003.002l-8.793 3.407c-7.64 2.96-13.06 9.83-14.16 17.94l-1.27 10.99c-.44 3.88 2.6 7.27 6.5 7.23l11.61-.11c-.15-.67-.19-1.39-.11-2.12l1.27-10.99c1.1-8.11 6.52-14.98 14.16-17.94 1.71-.667 3.604-.654 5.318.006 5.556 2.14 11.458 3.294 17.582 3.294 12.06.001 23.28-4.439 32.65-12.119z" fill="#f4d242"/><path d="m382.887 7.5h-1.2" fill="#b3e59f"/><path d="m382.887 504.5h-1.2" fill="#b3e59f"/><path d="m62.354 94.83-28.936-2.043c-11.046 0-12.936-3.512-12.936-14.557l.015 1.614c0-9.274-1.177-18.854 7.386-21.117 1.635-.432 3.353-.662 5.124-.662h37.957c11.046 0 20 8.954 20 20 0 1.249-.114 2.471-.334 3.657-1.717 9.298-18.479 13.108-28.276 13.108z" fill="#f7f9fa"/><path d="m90.627 81.72c-.75 4.06-2.72 7.68-5.52 10.48-3.62 3.62-8.62 5.86-14.14 5.86h-37.96c-11.05 0-20-8.95-20-20 0-5.52 2.24-10.52 5.86-14.14 2.8-2.8 6.42-4.77 10.48-5.52-.22 1.18-.34 2.41-.34 3.66 0 11.05 8.95 20 20 20h37.96c1.25 0 2.48-.12 3.66-.34z" fill="#e9edf1"/><path d="m62.354 184.832-28.936-2.043c-11.046 0-12.936-3.512-12.936-14.557l.015 1.614c0-9.274-1.177-18.854 7.386-21.117 1.635-.432 3.353-.662 5.124-.662h37.957c11.046 0 20 8.954 20 20 0 1.249-.114 2.471-.334 3.657-1.717 9.298-18.479 13.108-28.276 13.108z" fill="#f7f9fa"/><path d="m90.627 171.722c-.75 4.06-2.72 7.68-5.52 10.48-3.62 3.62-8.62 5.86-14.14 5.86h-37.96c-11.05 0-20-8.95-20-20 0-5.52 2.24-10.52 5.86-14.14 2.8-2.8 6.42-4.77 10.48-5.52-.22 1.18-.34 2.41-.34 3.66 0 11.05 8.95 20 20 20h37.96c1.25 0 2.48-.12 3.66-.34z" fill="#e9edf1"/><path d="m62.354 274.834-28.936-2.043c-11.046 0-12.936-3.512-12.936-14.557l.015 1.614c0-9.274-1.177-18.854 7.386-21.117 1.635-.432 3.353-.662 5.124-.662h37.957c11.046 0 20 8.954 20 20 0 1.249-.114 2.471-.334 3.657-1.717 9.298-18.479 13.108-28.276 13.108z" fill="#f7f9fa"/><path d="m90.627 261.724c-.75 4.06-2.72 7.68-5.52 10.48-3.62 3.62-8.62 5.86-14.14 5.86h-37.96c-11.05 0-20-8.95-20-20 0-5.52 2.24-10.52 5.86-14.14 2.8-2.8 6.42-4.77 10.48-5.52-.22 1.18-.34 2.41-.34 3.66 0 11.05 8.95 20 20 20h37.96c1.25 0 2.48-.12 3.66-.34z" fill="#e9edf1"/><path d="m62.354 364.835-28.936-2.043c-11.046 0-12.936-3.512-12.936-14.557l.015 1.614c0-9.274-1.177-18.854 7.386-21.117 1.635-.432 3.353-.662 5.124-.662h37.957c11.046 0 20 8.954 20 20 0 1.249-.114 2.471-.334 3.657-1.717 9.299-18.479 13.108-28.276 13.108z" fill="#f7f9fa"/><path d="m90.627 351.726c-.75 4.06-2.72 7.68-5.52 10.48-3.62 3.62-8.62 5.86-14.14 5.86h-37.96c-11.05 0-20-8.95-20-20 0-5.52 2.24-10.52 5.86-14.14 2.8-2.8 6.42-4.77 10.48-5.52-.22 1.18-.34 2.41-.34 3.66 0 11.05 8.95 20 20 20h37.96c1.25 0 2.48-.12 3.66-.34z" fill="#e9edf1"/><path d="m62.354 454.837-28.936-2.043c-11.046 0-12.936-3.512-12.936-14.557l.015 1.614c0-9.274-1.177-18.854 7.386-21.117 1.635-.432 3.353-.662 5.124-.662h37.957c11.046 0 20 8.954 20 20 0 1.249-.114 2.471-.334 3.657-1.717 9.299-18.479 13.108-28.276 13.108z" fill="#f7f9fa"/><path d="m90.627 441.728c-.75 4.06-2.72 7.68-5.52 10.48-3.62 3.62-8.62 5.86-14.14 5.86h-37.96c-11.05 0-20-8.95-20-20 0-5.52 2.24-10.52 5.86-14.14 2.8-2.8 6.42-4.77 10.48-5.52-.22 1.18-.34 2.41-.34 3.66 0 11.05 8.95 20 20 20h37.96c1.25 0 2.48-.121 3.66-.34z" fill="#e9edf1"/><path d="m205.736 185.027s15.39 59.115 39.991 59.115c24.638 0 44.724-26.114 45.678-58.81l-19.859-31.949-49.021 9.702z" fill="#f2d1a5"/><path d="m253.407 243.28c-2.5.57-5.06.86-7.68.86-24.6 0-44.66-26.03-45.67-58.66l15-5.61c.91 32.13 17.2 58.42 38.35 63.41z" fill="#f2bb88"/><path d="m288.749 146.701c-1.844-2.194-6.928-8.244-15.983-10.478-3.355-.828-6.469-.938-9.139-.719-5.464.449-10.942-.247-16.212-1.759-1.655-.475-3.497-.903-5.499-1.216-4.842-.758-9.14 1.182-15.434 2.725-3.934.965-9.279 6.29-17.744 18.128-9.484 13.263-10.307 19.583-8.681 25.36.375 1.332 1.579 2.254 2.963 2.255 4.7.003 6.19 3.887 12.158 2.729 11.271-2.186 23.691-6.892 33.055-15.817 5.948-5.67 15.583-4.682 20.34 2.019 5.932 8.355 11.03 14.542 23.318 15.268 1.486.088 2.809-.928 3.152-2.377 1.533-6.477 4.221-23.605-6.294-36.118z" fill="#b57f5f"/><path d="m244.717 133.07c-.23.04-.47.1-.71.16-3.93.96-16.03 4.49-24.5 16.33-9.48 13.26-6.23 27.74-4.61 33.52.07.23.16.44.28.64-5.97 1.16-11.61 1.61-16.31 1.61-1.39 0-2.59-.92-2.97-2.25-1.62-5.78-4.87-20.26 4.61-33.52 8.47-11.84 20.57-15.37 24.5-16.33 7.56-1.85 14.36-1.36 19.71-.16z" fill="#9f6e50"/></g><g><path d="m154.678 139.97c-3.361-2.42-8.047-1.661-10.47 1.698-29.193 40.504-31.931 94.606-6.974 137.832 32.804 59.394 114.191 81.95 173.485 46.485 60.646-35.014 81.498-112.839 46.484-173.485-16.961-29.378-44.348-50.393-77.115-59.173-37.565-10.213-78.039-2.278-109.513 21.391-3.306 2.496-3.963 7.198-1.468 10.505 2.496 3.307 7.199 3.963 10.505 1.468 26.569-20.458 63.759-27.971 96.594-18.874 28.896 7.742 53.049 26.275 68.007 52.184 30.878 53.483 12.488 122.116-40.994 152.995-50.895 30.96-124.06 11.904-152.994-40.996-22.011-38.122-19.596-85.838 6.151-121.561 2.422-3.36 1.661-8.047-1.698-10.469z"/><path d="m498.22 363.471c4.143 0 7.5-3.357 7.5-7.5v-18.471c0-8.714-6.409-15.939-14.756-17.263v-190.237c0-4.143-3.357-7.5-7.5-7.5s-7.5 3.357-7.5 7.5v190h-24.894v-108.698c7.295-2.11 12.649-8.836 12.649-16.802v-72c0-7.965-5.355-14.691-12.649-16.802v-51.464c0-12.406-10.094-22.5-22.5-22.5h-18.606v-4.234c0-4.5-1.093-8.747-3.018-12.5h56.518c6.893 0 12.5 5.607 12.5 12.5v67.5c0 4.143 3.357 7.5 7.5 7.5s7.5-3.357 7.5-7.5v-67.5c0-15.163-12.337-27.5-27.5-27.5-64.671 0-322.238 0-391.414 0-15.163 0-27.5 12.337-27.5 27.5v23.063h-10.77c-15.163 0-27.5 12.337-27.5 27.5s12.337 27.5 27.5 27.5h10.77v35h-10.77c-15.163 0-27.5 12.337-27.5 27.5s12.337 27.5 27.5 27.5h10.77v35h-10.77c-15.163 0-27.5 12.337-27.5 27.5s12.337 27.5 27.5 27.5h10.77v35h-10.77c-15.163 0-27.5 12.337-27.5 27.5s12.337 27.5 27.5 27.5h10.77v35h-10.77c-15.163 0-27.5 12.337-27.5 27.5s12.337 27.5 27.5 27.5h10.77v18.937c0 15.163 12.337 27.5 27.5 27.5h56.46c4.143 0 7.5-3.357 7.5-7.5s-3.357-7.5-7.5-7.5h-56.46c-6.893 0-12.5-5.607-12.5-12.5v-18.937h12.188c15.163 0 27.5-12.337 27.5-27.5s-12.337-27.5-27.5-27.5h-12.188v-35h12.188c15.163 0 27.5-12.337 27.5-27.5s-12.337-27.5-27.5-27.5h-12.188v-35h12.188c15.163 0 27.5-12.337 27.5-27.5s-12.337-27.5-27.5-27.5h-12.188v-35h12.188c15.163 0 27.5-12.337 27.5-27.5s-12.337-27.5-27.5-27.5h-12.188v-35h12.188c15.163 0 27.5-12.337 27.5-27.5s-12.337-27.5-27.5-27.5h-12.188v-23.063c0-6.893 5.607-12.5 12.5-12.5h310.414c6.893 0 12.5 5.607 12.5 12.5v457c0 6.893-5.607 12.5-12.5 12.5h-218.896c-4.143 0-7.5 3.357-7.5 7.5s3.357 7.5 7.5 7.5h299.896c15.163 0 27.5-12.337 27.5-27.5v-57.737c8.347-1.323 14.756-8.549 14.756-17.263v-18.471c0-4.143-3.357-7.5-7.5-7.5s-7.5 3.357-7.5 7.5v18.471c0 1.379-1.121 2.5-2.5 2.5h-37.15v-77h37.149c1.379 0 2.5 1.121 2.5 2.5v18.471c.001 4.142 3.358 7.5 7.501 7.5zm-413.983 74.592c0 6.893-5.607 12.5-12.5 12.5h-37.957c-6.893 0-12.5-5.607-12.5-12.5s5.607-12.5 12.5-12.5h37.957c6.893 0 12.5 5.608 12.5 12.5zm0-90c0 6.893-5.607 12.5-12.5 12.5h-37.957c-6.893 0-12.5-5.607-12.5-12.5s5.607-12.5 12.5-12.5h37.957c6.893 0 12.5 5.608 12.5 12.5zm0-90c0 6.893-5.607 12.5-12.5 12.5h-37.957c-6.893 0-12.5-5.607-12.5-12.5s5.607-12.5 12.5-12.5h37.957c6.893 0 12.5 5.608 12.5 12.5zm0-90c0 6.893-5.607 12.5-12.5 12.5h-37.957c-6.893 0-12.5-5.607-12.5-12.5s5.607-12.5 12.5-12.5h37.957c6.893 0 12.5 5.608 12.5 12.5zm0-90c0 6.893-5.607 12.5-12.5 12.5h-37.957c-6.893 0-12.5-5.607-12.5-12.5s5.607-12.5 12.5-12.5h37.957c6.893 0 12.5 5.608 12.5 12.5zm361.983 41.937c1.379 0 2.5 1.121 2.5 2.5v72c0 1.379-1.121 2.5-2.5 2.5h-36.256v-77zm-36.256 92h26.106v246c0 4.136-3.364 7.5-7.5 7.5h-18.606zm18.606-165.266c4.136 0 7.5 3.364 7.5 7.5v50.766h-26.106v-58.266zm47.394 380.266v57.5c0 6.893-5.607 12.5-12.5 12.5h-56.518c1.924-3.753 3.018-8 3.018-12.5v-4h18.606c12.406 0 22.5-10.094 22.5-22.5v-31z"/><path d="m184.008 266.771c-.007.05-.013.101-.019.151l-1.268 10.99c-.46 3.982.813 7.976 3.494 10.955 2.652 2.948 6.436 4.632 10.397 4.632h.129l101.214-.941c3.956-.037 7.728-1.759 10.347-4.723 2.62-2.964 3.865-6.917 3.417-10.846l-1.146-10.058c-.007-.054-.014-.107-.021-.161-1.471-10.812-8.704-19.978-18.876-23.922l-13.047-5.06c11.364-11.083 19.143-27.947 20.758-47.387 1.809-1.435 3.16-3.458 3.728-5.856 1.85-7.819 4.787-27.63-7.851-42.67-.001 0-.003-.003-.004-.004-2.103-2.501-8.501-10.112-19.925-12.93-7.088-1.971-15.923.397-25.081-2.405-8.649-2.481-17.73-2.686-26.263-.594-6.815 1.673-19.62 6.399-28.812 19.254-7.962 11.134-9.942 24.936-5.727 39.911.686 2.438 2.213 4.477 4.206 5.849 1.739 19.452 9.665 36.291 21.162 47.262l-11.938 4.629c-10.17 3.946-17.403 13.112-18.874 23.924zm23.374-112.849c6.381-8.924 15.387-12.233 20.185-13.411 4.838-1.159 11.692-1.555 18.554.444 7.676 2.747 16.576 1.424 25.623 2.551 6.68 1.646 10.434 6.112 12.036 8.019l.002.003c6.742 8.025 6.519 18.907 5.486 25.688-5.876-1.263-8.932-4.764-13.806-11.63-3.544-4.99-9.075-8.189-15.176-8.776-6.058-.579-12.062 1.483-16.455 5.672-10.91 10.399-27.584 14.648-40.741 15.271-1.885-9.2-.446-17.204 4.292-23.831zm1.515 38.409c12.016-1.243 31.052-5.427 45.284-18.993 1.699-1.618 3.655-1.696 4.669-1.598 1.036.1 2.983.561 4.382 2.529 5.462 7.694 10.986 14.362 20.983 17.13-2.959 25.457-19.007 45.242-37.715 45.242-18.462.001-34.363-19.313-37.603-44.31zm-.589 64.503 21.861-8.478c5.147 2.125 10.63 3.286 16.33 3.286 5.98 0 11.722-1.274 17.084-3.599l22.67 8.792c5.063 1.963 8.669 6.513 9.427 11.886l1.009 8.849-98.935.92 1.127-9.765c.756-5.375 4.362-9.927 9.427-11.891z"/><path d="m328.72 391h-163c-4.143 0-7.5 3.357-7.5 7.5s3.357 7.5 7.5 7.5h163c4.143 0 7.5-3.357 7.5-7.5s-3.358-7.5-7.5-7.5z"/><path d="m328.72 422h-39c-4.143 0-7.5 3.357-7.5 7.5s3.357 7.5 7.5 7.5h39c4.143 0 7.5-3.357 7.5-7.5s-3.358-7.5-7.5-7.5z"/><path d="m165.72 422c-4.143 0-7.5 3.357-7.5 7.5s3.357 7.5 7.5 7.5h89c4.143 0 7.5-3.357 7.5-7.5s-3.357-7.5-7.5-7.5z"/></g></g></svg>