<svg id="Layer_1" enable-background="new 0 0 512 512" height="512" viewBox="0 0 512 512" width="512" xmlns="http://www.w3.org/2000/svg"><g><g><path d="m253.27 47.295-193.506 172.738 38.572 228.08h154.934 154.934l38.573-228.08z" fill="#fefefe"/></g><g><path d="m253.27 47.295-15 13.39 178.507 159.348-38.573 228.08h30l38.573-228.08z" fill="#f3f2ee"/></g><g><path d="m443.067 243.551-183.159-163.5c-3.794-3.387-9.526-3.386-13.32.001l-183.112 163.497c-3.932 3.511-9.966 3.17-13.477-.763l-13.926-15.596c-3.511-3.932-3.17-9.966.763-13.477l209.749-187.283c3.794-3.387 9.526-3.388 13.32-.001l209.8 187.282c3.933 3.511 4.275 9.545.764 13.477l-13.925 15.599c-3.511 3.933-9.545 4.275-13.477.764z" fill="#ffcd6c"/></g><g><path d="m184.333 443.516v-122.791c0-38.073 30.864-68.938 68.937-68.938 38.073 0 68.938 30.864 68.938 68.938v123.267" fill="#ac9faf"/></g><g><path d="m272.428 157.982c-6.506 0-12.359 2.792-16.429 7.242-4.07-4.45-9.923-7.242-16.429-7.242-12.294 0-22.261 9.966-22.261 22.261 0 5.033 1.67 9.676 4.487 13.405 4.063 5.379 19.669 21.602 34.202 25.053 13.911-4.171 30.139-19.674 34.202-25.053 2.817-3.729 4.487-8.372 4.487-13.405.002-12.294-9.964-22.261-22.259-22.261z" fill="#ffcd6c"/></g><g><path d="m469.704 213.711-209.8-187.282c-3.794-3.387-9.526-3.387-13.32.001l-8.339 7.446 201.458 179.835c3.933 3.511 4.275 9.545.764 13.477l-6.977 7.816 9.575 8.547c3.933 3.511 9.967 3.169 13.477-.764l13.925-15.599c3.512-3.932 3.17-9.966-.763-13.477z" fill="#ffae52"/></g><g><path d="m253.27 251.787c-5.154 0-10.169.584-15 1.656 30.857 6.85 53.938 34.362 53.938 67.282v123.163l30 .104v-123.267c0-38.073-30.865-68.938-68.938-68.938z" fill="#9b909e"/></g><g><path d="m272.428 157.982c-5.779 0-11.04 2.207-14.996 5.818 4.459 4.071 7.257 9.93 7.257 16.443 0 5.033-1.67 9.676-4.487 13.405-2.661 3.523-10.54 11.387-19.568 17.568 4.879 3.403 10.189 6.256 15.366 7.486 13.911-4.171 30.139-19.674 34.202-25.053 2.817-3.729 4.487-8.372 4.487-13.405 0-12.295-9.966-22.262-22.261-22.262z" fill="#ffae52"/></g><g><path d="m452.277 488.113h-392.555v-29.627c0-5.729 4.644-10.373 10.373-10.373h371.809c5.729 0 10.373 4.644 10.373 10.373z" fill="#d4d0d0"/></g><g><path d="m322.208 448.113h-137.875v-11.326c0-24.835 20.133-44.969 44.968-44.969h47.938c24.835 0 44.969 20.133 44.969 44.969z" fill="#68cbfe"/></g><g><path d="m441.905 448.113h-30c5.729 0 10.373 4.644 10.373 10.373v29.627h30v-29.627c-.001-5.729-4.645-10.373-10.373-10.373z" fill="#c1bab9"/></g><g><path d="m277.239 391.818h-30c24.835 0 44.969 20.133 44.969 44.969v11.326h30v-11.326c0-24.836-20.133-44.969-44.969-44.969z" fill="#68cbfe"/></g><g><path d="m504.5 480.613h-44.723v-22.128c0-9.855-8.018-17.873-17.873-17.873h-24.825l31.653-187.166c.223.008.444.03.669.03.328 0 .657-.009.987-.028 4.545-.257 8.719-2.27 11.751-5.667l13.924-15.599c3.032-3.396 4.56-7.771 4.302-12.316s-2.27-8.719-5.667-11.751l-209.8-187.282c-6.645-5.931-16.665-5.93-23.31.002l-115.626 103.243c-3.09 2.759-3.358 7.5-.599 10.59 2.759 3.091 7.501 3.358 10.589.599l115.628-103.242c.948-.847 2.379-.849 3.33 0l209.8 187.281c.522.467.658 1.024.68 1.41s-.05.955-.517 1.478l-13.924 15.599c-.467.523-1.024.658-1.41.68-.385.019-.955-.05-1.478-.517l-183.159-163.5c-6.643-5.931-16.665-5.931-23.309.001l-183.112 163.497c-.841.751-2.136.678-2.888-.163l-13.926-15.597c-.466-.522-.538-1.091-.516-1.478.021-.386.157-.943.68-1.41l71.508-63.849c3.09-2.759 3.358-7.5.599-10.59-2.758-3.09-7.5-3.358-10.589-.599l-71.509 63.849c-3.396 3.033-5.409 7.206-5.666 11.752s1.271 8.919 4.303 12.315l13.926 15.597c3.525 3.947 8.489 5.865 13.405 5.67l31.652 187.161h-19.365c-9.855 0-17.873 8.018-17.873 17.873v22.128h-44.722c-4.142 0-7.5 3.358-7.5 7.5s3.358 7.5 7.5 7.5h497c4.142 0 7.5-3.358 7.5-7.5s-3.358-7.5-7.5-7.5zm-189.792-40h-122.875v-3.826c0-20.66 16.808-37.468 37.468-37.468h47.938c20.66 0 37.469 16.808 37.469 37.468zm-137.875-119.888v5.553h-91.495l-5.913-34.967h103.302c-3.792 9.059-5.894 18.994-5.894 29.414zm-88.958 20.553h88.958v34.967h-83.045zm189.364 43.041h-47.938c-14.666 0-27.938 6.055-37.468 15.789v-79.382c0-33.877 27.561-61.438 61.438-61.438s61.437 27.561 61.437 61.438v79.383c-9.53-9.735-22.803-15.79-37.469-15.79zm143.964-58.041h-91.495v-5.553c0-10.419-2.102-20.355-5.894-29.415h103.302zm-91.495 15h88.958l-5.914 34.967h-83.044zm-78.125-255.632c.948-.847 2.379-.849 3.33 0l179.836 160.533-5.096 30.131h-114.232c-13.881-19.368-36.559-32.023-62.151-32.023s-48.27 12.655-62.15 32.023h-114.232l-5.096-30.132zm-155.258 305.598h80.508v45.542 3.826h-72.159zm-29.103 89.369v-22.128c0-1.584 1.288-2.873 2.873-2.873h28.21c.007 0 .014.001.022.001.004 0 .008-.001.012-.001h85.994 137.875 39.544c4.142 0 7.5-3.358 7.5-7.5s-3.358-7.5-7.5-7.5h-32.044v-3.826-45.542h80.508l-8.314 49.16c-.012.07-.015.139-.025.209h-10.125c-4.142 0-7.5 3.358-7.5 7.5s3.358 7.5 7.5 7.5h50.152c1.584 0 2.873 1.289 2.873 2.873v22.128h-377.555z"/><path d="m254.267 225.998c.57.136 1.152.203 1.733.203.727 0 1.452-.105 2.154-.316 16.66-4.996 33.949-22.312 38.032-27.717 3.927-5.198 6.003-11.397 6.003-17.926 0-16.41-13.351-29.761-29.761-29.761-5.879 0-11.595 1.757-16.428 4.953-4.833-3.196-10.55-4.953-16.429-4.953-16.41 0-29.761 13.351-29.761 29.761 0 6.529 2.076 12.728 6.003 17.925 3.636 4.814 20.817 23.643 38.454 27.831zm-14.696-60.516c4.192 0 8.061 1.706 10.895 4.804 1.421 1.553 3.429 2.438 5.534 2.438s4.113-.885 5.534-2.438c2.833-3.098 6.702-4.804 10.894-4.804 8.139 0 14.761 6.622 14.761 14.761 0 3.239-1.027 6.311-2.972 8.884-3.664 4.85-17.257 17.439-28.426 21.723-11.606-3.843-24.621-17.239-28.009-21.724-1.944-2.573-2.972-5.645-2.972-8.884.001-8.138 6.622-14.76 14.761-14.76z"/></g></g></svg>