<svg id="Capa_1" enable-background="new 0 0 510.393 510.393" height="512" viewBox="0 0 510.393 510.393" width="512" xmlns="http://www.w3.org/2000/svg"><g><g><path d="m396.012 420.363h34.615c39.781 0 72.146-32.364 72.146-72.146 0-22.138-9.943-42.731-27.28-56.498l-46.527-36.948c-6.695-5.317-16.431-4.2-21.748 2.496-5.316 6.694-4.199 16.431 2.496 21.748l46.527 36.948c9.897 7.86 15.574 19.616 15.574 32.255 0 22.711-18.477 41.188-41.188 41.188h-31.139-68.095v30.958h64.619z" fill="#aa9ea9"/><path d="m86.044 502.893h51c5.42 0 10.619-2.153 14.452-5.986 5.711-5.711 7.523-14.248 4.625-21.786l-6.068-15.783v-76.121-75.312h-59.771z" fill="#e5e1e5"/><g id="XMLID_180_"><g><path d="m243.652 457.428-5.44-5.17c-13.36-12.7-19.35-30.28-17.77-47.35l-.25-.02h-2.08c-20.861 0-40.949-7.89-56.235-22.086l-8.435-7.834-30.05 30.05c-2.68 2.68-4.18 6.3-4.18 10.08v62.2c0 4.53-1.99 8.83-5.44 11.77l-16.2 13.78c-.04.015-.096.035-.136.05h-48.384c-4.678 0-8.47-3.792-8.47-8.47v-1.77c0-7.47 2.77-14.68 7.76-20.23l22.74-25.27v-176.92l19.2-57.06v-79.934c0-3.577-2.9-6.476-6.476-6.476h-19.824c-14.37 0-27.977-6.468-37.049-17.612l-15.501-19.038c-2.46-3.03-3.81-6.81-3.81-10.72v-10.05c0-9.378 7.602-16.98 16.98-16.98h28.48l34.96-34.95c6.35-6.35 14.96-9.92 23.94-9.92l47.21.02c4.24 0 8.4.8 12.28 2.31 3.89 1.52 7.49 3.76 10.61 6.63 12.99 11.97 20.38 28.83 20.39 46.5v8.9l27.55 94.6c2.46 8.44 6.96 16.15 13.12 22.43l123.89 126.56c10.08 10.3 17.95 22.38 23.3 35.49 5.34 13.11 8.17 27.24 8.17 41.66 0 60.92-49.38 110.3-110.29 110.3h-94.35c-3.397 0-6.15-2.753-6.15-6.15v-20.24c0-10.538 8.542-19.08 19.08-19.08z" fill="#efedef"/></g><g fill="#e5e1e5"><g><path d="m168.423 388.262-3.465-3.218-.258.258c1.213 1.028 2.459 2.009 3.723 2.96z"/><path d="m52.099 502.735c0-7.47 2.77-14.68 7.76-20.23l22.74-25.27v-176.92l19.2-57.06v-79.934c0-3.577-2.9-6.476-6.476-6.476h-5.04v76.333l-19.2 57.06v176.92l-22.74 25.27c-4.99 5.55-7.76 12.76-7.76 20.23v1.77c0 4.678 3.792 8.47 8.47 8.47h3.047v-.163z"/></g><path d="m182.082 16.458c-3.12-2.87-6.72-5.11-10.61-6.63-3.88-1.51-8.04-2.31-12.28-2.31l-47.21-.02c-8.98 0-17.59 3.57-23.94 9.92l-34.96 34.95h-5.694-4.581-18.205c-9.378 0-16.98 7.602-16.98 16.98v10.05c0 3.91 1.35 7.69 3.81 10.72l15.501 19.038c9.073 11.144 22.68 17.612 37.049 17.612h19.824c3.577 0 6.476 2.9 6.476 6.476v79.934l-19.2 57.06v176.92l-22.74 25.27c-4.99 5.55-7.76 12.76-7.76 20.23v1.77c0 4.678 3.792 8.47 8.47 8.47h48.384c.04-.015.096-.035.136-.05l.917-.78h-21.42c-4.678 0-8.47-3.792-8.47-8.47v-1.77c0-7.47 2.77-14.68 7.76-20.23l18.951-21.059c2.44-2.711 3.789-6.229 3.789-9.876v-171.255l19.2-57.06v-79.934c0-3.577-2.9-6.476-6.476-6.476h-19.824c-14.37 0-27.977-6.468-37.049-17.612l-15.5-19.038c-2.46-3.03-3.81-6.81-3.81-10.72v-10.05c0-5.72 7.168-6.073 7.168-6.073h13.641c5.218 0 10.223-2.073 13.913-5.762l29.196-29.188c6.35-6.35 14.96-9.92 23.94-9.92l47.21.02c4.24 0 8.4.8 12.28 2.31 1.515.592 2.983 1.296 4.399 2.101-1.65-1.942-3.41-3.803-5.305-5.548z"/></g></g><circle cx="61.628" cy="182.708" fill="#fdcf8a" r="24.415"/><path d="m55.858 185.053c0-11.227 7.581-20.678 17.902-23.53-3.575-2.052-7.714-3.231-12.132-3.231-13.484 0-24.415 10.931-24.415 24.415s10.931 24.415 24.415 24.415c2.257 0 4.439-.313 6.514-.886-7.338-4.21-12.284-12.116-12.284-21.183z" fill="#fbc773"/><g id="XMLID_181_"><g><path d="m135.882 191.538c.26 1.83.39 3.69.39 5.59 0 22.01-17.84 39.85-39.85 39.85-1.17 0-6.67-.76-13.55-1.77l7.41-22.03v-21.64h2.17 16.87c8.9 0 17.75-.65 26.48-1.93z" fill="#aa9ea9"/><path d="m109.322 191.538h-16.87-2.17v21.64l-7.41 22.03c6.88 1.01 12.38 1.77 13.55 1.77 5.122 0 10.013-.977 14.51-2.737l7.367-21.893v-21.037c-2.985.146-5.978.227-8.977.227z" fill="#9b8e99"/><path d="m81.862 282.768c22.04 0 39.9 17.86 39.9 39.89 0 11.02-4.47 20.99-11.69 28.21s-17.19 11.69-28.21 11.69h-10.78v-79.79z" fill="#aa9ea9"/><path d="m99.099 286.673c-5.217-2.502-11.063-3.905-17.237-3.905h-10.78v79.79h10.78c6.175 0 12.021-1.405 17.237-3.91z" fill="#9b8e99"/><path d="m243.142 188.888 88.25 90.16-9.54 7.54c-12.59 9.95-29.75 11.82-44.19 4.83l-17.85-8.65-7.79 1.55c-2.73.54-5.48.81-8.2.81-10.99 0-21.66-4.33-29.58-12.25-14.92-14.92-16.4-38.61-3.45-55.27l27.14-34.9c1.57 2.18 3.31 4.25 5.21 6.18z" fill="#aa9ea9"/></g><g><g id="XMLID_182_"><g><path d="m213.902 111.098 11.48 39.42-.89.26-2.78 2.16c-25.09 19.55-54.73 32.11-85.91 36.67-8.73 1.28-17.58 1.93-26.48 1.93h-16.87-2.17v-36.57h1.04 3.33c40.72 0 80.27-13.59 112.4-38.6l5.73-4.47z" fill="#db895d"/></g><path d="m118.299 191.311v-37.885c-7.807 1.018-15.705 1.542-23.647 1.542h-3.33-1.04v36.57h2.17 16.87c2.999 0 5.992-.081 8.977-.227z" fill="#c86f3d"/><g><g id="XMLID_183_"><g><path d="m202.472 62.958-46.95 32.58c-11.59 8.05-27.45-.25-27.45-14.36v-73.67l31.12.01c4.24 0 8.4.8 12.28 2.31 3.89 1.52 7.49 3.76 10.61 6.63 12.99 11.97 20.38 28.83 20.39 46.5z" fill="#aa9ea9"/></g></g></g></g></g></g></g><g><circle cx="92.456" cy="58.456" r="9.78"/><path d="m480.156 285.846-46.527-36.948c-4.806-3.816-10.808-5.53-16.91-4.834-6.098.7-11.558 3.732-15.375 8.54-3.817 4.807-5.534 10.812-4.834 16.91s3.732 11.558 8.539 15.375l16.388 13.014c3.245 2.576 7.961 2.034 10.538-1.209 2.576-3.244 2.034-7.961-1.209-10.538l-16.388-13.014c-1.669-1.325-2.722-3.221-2.965-5.338-.243-2.118.353-4.203 1.679-5.872 1.325-1.669 3.221-2.723 5.338-2.965 2.115-.242 4.203.353 5.872 1.679l46.527 36.948c15.534 12.335 24.444 30.788 24.444 50.624 0 35.646-29 64.646-64.646 64.646h-26.371c.907-5.211 1.467-10.539 1.663-15.958h24.708c26.846 0 48.688-21.841 48.688-48.688 0-14.939-6.71-28.836-18.41-38.128l-5.107-4.056c-3.244-2.575-7.961-2.034-10.538 1.209-2.576 3.244-2.034 7.962 1.209 10.538l5.107 4.055c8.095 6.429 12.738 16.044 12.738 26.381 0 18.576-15.112 33.688-33.688 33.688h-25.105c-2.42-26.982-13.967-52.126-33.134-71.706l-35.61-36.375c-.003-.003-.006-.006-.009-.01l-88.271-90.169c-5.269-5.383-9.168-12.051-11.274-19.283l-27.25-93.577-.002-7.833c-.006-19.703-8.318-38.661-22.806-52.011-7.644-7.044-17.578-10.925-27.971-10.928l-47.205-.013c-.004 0-.007 0-.012 0-11.044 0-21.427 4.301-29.236 12.11l-32.761 32.761h-25.38c-13.498 0-24.479 10.981-24.479 24.479v10.049c0 5.614 1.952 11.103 5.497 15.457l15.507 19.044c10.542 12.945 26.162 20.37 42.857 20.37h18.804v24.568c-5.636-5.003-13.046-8.049-21.157-8.049-17.598 0-31.916 14.317-31.916 31.916s14.317 31.916 31.916 31.916c8.111 0 15.521-3.047 21.157-8.049v5.382l-18.808 55.894c-.259.771-.392 1.579-.392 2.392v112.883c0 4.142 3.358 7.5 7.5 7.5s7.5-3.358 7.5-7.5v-13.062h3.279c26.135 0 47.397-21.262 47.397-47.397s-21.262-47.399-47.396-47.399h-3.279v-3.8l9.344-27.77c2.794.507 5.635.782 8.494.782 26.109 0 47.35-21.241 47.35-47.35 0-.422-.011-.845-.022-1.268 27.813-5.149 54.384-16.457 77.376-33.116l1.693 5.813c1.401 4.81 3.401 9.432 5.926 13.745l-23.874 30.704c-15.24 19.6-13.494 47.619 4.062 65.175 11.688 11.688 28.343 16.731 44.551 13.496l5.327-1.064 15.583 7.55c6.775 3.283 14.118 4.891 21.435 4.891 10.944 0 21.832-3.6 30.666-10.581l4.255-3.361 30.916 31.581c18.919 19.326 29.338 44.863 29.338 71.908 0 56.68-46.112 102.792-102.792 102.792h-93.002v-18.887c0-6.384 5.194-11.579 11.579-11.579h71.438c4.142 0 7.5-3.358 7.5-7.5s-3.358-7.5-7.5-7.5h-31.584l-3.269-3.107c-19.796-18.818-20.883-50.504-2.422-70.634 18.573-20.252 49.395-22.026 70.17-4.043l15.361 13.298c3.132 2.711 7.869 2.37 10.579-.762 2.711-3.132 2.37-7.868-.762-10.579l-15.361-13.298c-12.946-11.208-29.492-16.84-46.585-15.852-17.095.985-32.883 8.478-44.457 21.097-8.161 8.898-13.585 19.652-15.911 31.214-17.522-.953-34.087-7.952-47.021-19.97l-8.416-7.82c-2.957-2.747-7.556-2.663-10.409.191l-30.057 30.057c-4.109 4.109-6.372 9.572-6.372 15.383v62.191c0 2.338-1.021 4.549-2.803 6.064l-14.147 12.035h-8.721-36.995c-.532 0-.965-.433-.965-.965v-1.772c0-5.627 2.073-11.03 5.838-15.213l22.74-25.267c1.239-1.377 1.925-3.164 1.925-5.017v-32.075c0-4.142-3.358-7.5-7.5-7.5s-7.5 3.358-7.5 7.5v29.197l-20.815 23.128c-6.248 6.941-9.688 15.908-9.688 25.248v1.772c0 8.803 7.162 15.965 15.965 15.965h36.995 11.417 39.583c7.462 0 14.479-2.906 19.755-8.183 7.798-7.798 10.28-19.488 6.322-29.781l-5.568-14.483v-68.961c15.29 13.878 34.669 22.006 55.175 23.221.003.102 0 .204.003.307.471 13.733 5.153 26.697 13.352 37.415h-19.291c-14.656 0-26.579 11.923-26.579 26.579v20.241c0 7.524 6.121 13.646 13.646 13.646h94.356c52.672 0 97.377-34.751 112.399-82.529h30.014c43.917 0 79.646-35.729 79.646-79.646-.001-24.44-10.978-47.174-30.117-62.372zm-418.528-86.227c-9.327 0-16.916-7.588-16.916-16.916s7.588-16.916 16.916-16.916 16.915 7.588 16.915 16.916-7.587 16.916-16.915 16.916zm2.354-80.35c-12.164 0-23.545-5.41-31.225-14.842l-15.507-19.044c-1.373-1.686-2.129-3.811-2.129-5.985v-10.048c0-5.227 4.252-9.479 9.479-9.479h28.487c1.989 0 3.897-.79 5.303-2.197l34.958-34.958c4.976-4.976 11.591-7.716 18.629-7.716h.007l8.59.003v22.113c0 4.142 3.358 7.5 7.5 7.5s7.5-3.358 7.5-7.5v-22.109l23.615.007c6.618.001 12.943 2.473 17.811 6.958 10.321 9.511 16.646 22.636 17.771 36.54l-43.521 30.864c-3.108 2.159-6.966 2.398-10.32.645-3.353-1.754-5.355-5.062-5.355-8.846v-12.097c0-4.142-3.358-7.5-7.5-7.5s-7.5 3.358-7.5 7.5v12.098c0 9.329 5.135 17.812 13.401 22.136 3.649 1.909 7.615 2.855 11.573 2.855 5.007 0 10.001-1.515 14.316-4.511l36.033-25.554 9.362 32.15-2.819 2.195c-29.831 23.23-66.882 36.3-104.656 36.985v-20.664c0-4.142-3.358-7.5-7.5-7.5h-26.303zm17.884 170.996c17.864 0 32.397 14.533 32.397 32.397s-14.533 32.397-32.397 32.397h-3.279v-64.794zm14.558-60.787c-1.219 0-2.432-.082-3.636-.217l4.606-13.689c.259-.771.392-1.579.392-2.392v-14.141h11.533c6.502 0 12.989-.342 19.433-1.01-.48 17.421-14.792 31.449-32.328 31.449zm12.895-45.439h-11.533v-21.606c40.303-.674 79.859-14.345 111.98-38.709l6.885 23.643c-30.579 23.649-68.67 36.672-107.332 36.672zm207.879 96.665c-10.261 8.108-24.494 9.661-36.262 3.96l-17.851-8.648c-1.471-.713-3.135-.926-4.739-.605l-7.798 1.557c-11.284 2.252-22.873-1.259-31.007-9.393-12.219-12.219-13.434-31.719-2.827-45.361l21.491-27.638 81.994 83.757zm-171.007 210.9c-2.443 2.443-5.692 3.789-9.148 3.789h-19.13l.717-.61c5.137-4.37 8.083-10.744 8.083-17.489v-62.191c0-1.804.703-3.5 1.979-4.776l13.859-13.859v62.871c0 .92.169 1.833.5 2.691l6.068 15.783c1.833 4.766.684 10.179-2.928 13.791z"/></g></g></svg>