<?xml version="1.0" encoding="utf-8"?>
<!-- Generator: Adobe Illustrator 25.2.3, SVG Export Plug-In . SVG Version: 6.00 Build 0)  -->
<svg version="1.1" id="Capa_1" xmlns="http://www.w3.org/2000/svg" xmlns:xlink="http://www.w3.org/1999/xlink" x="0px" y="0px"
	 viewBox="0 0 95.7 95.7" style="enable-background:new 0 0 95.7 95.7;" xml:space="preserve">
<g>
	<g>
		<path d="M88.6,88.4L78.5,38.3L49.6,44L19.7,87.9H6.9c-2.1,0-3.9,1.7-3.9,3.9c0,2.1,1.7,3.9,3.9,3.9l59.5-0.1c3.3,0,5.9-2.7,5.9-6
			c0-3.3-2.7-5.9-5.9-5.9c0,0,0,0,0,0l-5.3,0l10.2-20.3L77,90.8c0.6,2.8,3,4.7,5.8,4.7c0.4,0,0.8,0,1.2-0.1
			C87.2,94.8,89.3,91.6,88.6,88.4z"/>
		<path d="M73.2,8.6c-4.7-0.1-8.1-2-12.7-1.5c-0.8,0.1-1.6,0.2-2.4,0.4c-0.5,0.1-0.8,0-1-0.4c-0.9-1.3-1.9-2.5-2.9-3.8
			c-1.8-2.2-4.1-3.6-6.9-3.3c-1.1,0.1-5.9,1.6-2.3,8.4c0.8,1.5,1.5,3.1,1.9,4.7l4.4,25.2l27-5c0,0,0-6.9,0.7-7.1
			c0.9-0.3,1.9-0.6,2.8-1c2.7-0.9,5.1-2.4,7.1-4.5c3.4-3.5,5.4-8.9,1.8-13.6C87.3,2.8,74.8,8.6,73.2,8.6z"/>
	</g>
</g>
</svg>
