<svg id="Capa_1" enable-background="new 0 0 512 512" height="512" viewBox="0 0 512 512" width="512" xmlns="http://www.w3.org/2000/svg"><g><g><g><g><g><g><path d="m390.922 58.549h-331.204c-28.839 0-52.218 23.379-52.218 52.218v203.837c0 28.839 23.379 52.218 52.218 52.218h4.94c4.518 0 7.935 4.087 7.134 8.533l-12.866 71.438c-.967 5.372 5.49 8.856 9.449 5.098l84.718-80.42c3.145-2.986 7.316-4.65 11.653-4.65h226.176c28.839 0 52.218-23.379 52.218-52.218v-203.836c.001-28.839-23.378-52.218-52.218-52.218z" fill="#b1e4f9"/></g></g></g></g><g fill="#90d8f9"><path d="m90.16 371.472-21.311 20.23-9.922 55.092c-.967 5.372 5.49 8.856 9.449 5.098l84.718-80.42c3.145-2.986 7.316-4.65 11.653-4.65h-62.934c-4.337 0-8.508 1.665-11.653 4.65z"/><path d="m390.922 58.549h-62.934c28.84 0 52.218 23.379 52.218 52.218v203.837c0 28.839-23.379 52.218-52.218 52.218h62.934c28.839 0 52.218-23.379 52.218-52.218v-203.837c.001-28.839-23.378-52.218-52.218-52.218z"/></g><g><path d="m317.728 304.722-34.29 14.904c-7.359 3.198-14.829-4.272-11.631-11.631l14.904-34.29c2.87-6.603 6.957-12.607 12.049-17.698l163.578-163.578c7.32-7.32 19.188-7.32 26.508 0l10.158 10.158c7.32 7.32 7.32 19.188 0 26.508l-163.578 163.578c-5.091 5.092-11.095 9.179-17.698 12.049z" fill="#e28086"/><path d="m317.728 304.722-34.29 14.904c-7.359 3.198-14.829-4.272-11.631-11.631l14.904-34.29c2.87-6.603 6.957-12.607 12.049-17.698l36.666 36.666c-5.091 5.092-11.095 9.179-17.698 12.049z" fill="#524798"/><path d="m434.063 116.211h30.465v51.854h-30.465z" fill="#f0f7ff" transform="matrix(.707 -.707 .707 .707 31.089 359.331)"/></g></g><g><path d="m376.18 136.614c0-4.142-3.357-7.5-7.5-7.5h-286.719c-4.143 0-7.5 3.358-7.5 7.5s3.357 7.5 7.5 7.5h286.719c4.143 0 7.5-3.358 7.5-7.5z"/><path d="m306.26 205.151c0-4.142-3.357-7.5-7.5-7.5h-216.799c-4.143 0-7.5 3.358-7.5 7.5s3.357 7.5 7.5 7.5h216.799c4.143 0 7.5-3.358 7.5-7.5z"/><path d="m81.961 266.188c-4.143 0-7.5 3.358-7.5 7.5s3.357 7.5 7.5 7.5h159.55c4.143 0 7.5-3.358 7.5-7.5s-3.357-7.5-7.5-7.5z"/><path d="m504.308 97.284-10.158-10.158c-10.234-10.232-26.882-10.231-37.116 0-12.35 12.35-133.729 133.73-163.572 163.573-.002.002-.003.003-.005.005-.003.003-.006.007-.009.01-5.777 5.778-10.357 12.507-13.614 20.001l-14.904 34.29c-5.909 13.59 7.912 27.401 21.499 21.499l34.289-14.905c7.497-3.259 14.23-7.842 20.013-13.623 29.468-29.468 151.298-151.3 163.576-163.578 10.256-10.256 10.258-26.856.001-37.114zm-189.569 200.559-34.29 14.905c-1.128.489-2.258-.627-1.764-1.763l14.904-34.291c1.499-3.448 3.369-6.68 5.576-9.676l25.249 25.249c-2.996 2.208-6.228 4.078-9.675 5.576zm20.688-15.776-26.06-26.06 110.824-110.825 26.06 26.06zm121.431-121.432-26.06-26.06 10.935-10.935 26.06 26.059zm36.842-36.843-15.3 15.301-26.06-26.059 15.301-15.301c4.383-4.384 11.518-4.384 15.901 0l10.158 10.158c4.396 4.395 4.396 11.506 0 15.901z"/><path d="m443.14 215.923c-4.143 0-7.5 3.358-7.5 7.5v91.181c0 24.658-20.06 44.718-44.718 44.718h-226.176c-6.286 0-12.259 2.384-16.815 6.711l-80.621 76.531 11.863-65.879c1.629-9.034-5.313-17.363-14.514-17.363h-4.94c-24.659 0-44.719-20.06-44.719-44.718v-203.836c0-24.658 20.06-44.719 44.718-44.719h331.204c13.138 0 25.558 5.746 34.08 15.763 2.683 3.154 7.416 3.537 10.572.854 3.155-2.684 3.537-7.417.854-10.572-11.376-13.374-27.962-21.045-45.505-21.045h-331.205c-32.928 0-59.718 26.79-59.718 59.719v203.836c0 32.929 26.79 59.718 59.718 59.718h4.64l-12.811 71.142c-1.011 5.609 1.681 11.196 6.696 13.903 5.075 2.74 11.216 1.84 15.297-2.035l84.719-80.42c1.759-1.67 4.062-2.589 6.488-2.589h226.176c32.928 0 59.718-26.789 59.718-59.718v-91.181c-.001-4.143-3.358-7.501-7.501-7.501z"/></g></g></svg>