<svg id="Capa_1" enable-background="new 0 0 511.932 511.932" height="512" viewBox="0 0 511.932 511.932" width="512" xmlns="http://www.w3.org/2000/svg"><g><path d="m442.33 333.656v-310.623c0-8.578-6.954-15.531-15.531-15.531h-277.216c-44.183 0-80 35.817-80 80v305.934c0 44.183 35.817 80 80 80h277.216c8.578 0 15.531-6.954 15.531-15.531 0-8.578-6.954-15.531-15.531-15.531h-279.56c-25.733 0-46.593-20.861-46.593-46.593 0-25.733 20.861-46.593 46.593-46.593h279.56c8.578-.001 15.531-6.955 15.531-15.532z" fill="#fed2a4"/><g fill="#af6e5a"><ellipse cx="293.613" cy="116.354" rx="20.75" ry="31.188"/><ellipse cx="231.488" cy="147.291" rx="15.5" ry="23.297" transform="matrix(.866 -.5 .5 .866 -42.632 135.477)"/><ellipse cx="355.737" cy="147.291" rx="23.297" ry="15.5" transform="matrix(.5 -.866 .866 .5 50.311 381.723)"/><path d="m243.772 271.513c10.144-.366 19.299-3.864 26.545-10.086 14.111-10.344 32.493-10.343 46.602.004 7.244 6.22 16.397 9.717 26.539 10.082 27.478 0 30.867-31.454 22.941-47.844-7.205-13.203-17.268-24.24-29.291-32.129l-.006-.004c-26.79-17.577-60.187-17.577-86.977 0-12.027 7.891-22.092 18.933-29.298 32.141-8.072 15.685-4.323 47.836 22.945 47.836z"/></g><g fill="#965a50"><path d="m292.863 116.354c0-11.775 4.342-22.025 10.75-27.333-2.966-2.457-6.374-3.855-10-3.855-11.46 0-20.75 13.963-20.75 31.188s9.29 31.188 20.75 31.188c3.626 0 7.034-1.398 10-3.854-6.409-5.309-10.75-15.559-10.75-27.334z"/><path d="m238.065 155.041c-5.337-9.244-5.699-19.424-1.435-25.069-5.644-4.283-12.009-5.617-16.79-2.856-7.414 4.28-8.208 16.783-1.775 27.925 6.433 11.143 17.658 16.706 25.072 12.426 1.263-.729 2.334-1.698 3.21-2.857-3.109-2.359-5.998-5.612-8.282-9.569z"/><path d="m362.314 139.541c2.285-3.957 5.174-7.21 8.281-9.569-.876-1.159-1.947-2.127-3.21-2.856-7.414-4.28-18.638 1.283-25.072 12.425-6.433 11.143-5.638 23.646 1.775 27.926 4.781 2.76 11.146 1.427 16.79-2.857-4.264-5.645-3.901-15.825 1.436-25.069z"/><path d="m240.827 223.677c7.206-13.208 17.271-24.25 29.298-32.141 10.422-6.838 21.844-11.015 33.488-12.533-18.287-2.383-37.121 1.794-53.488 12.533-12.027 7.891-22.092 18.933-29.298 32.141-8.072 15.685-4.322 47.836 22.945 47.836 3.612-.13 7.098-.658 10.418-1.564-18.468-6.624-20.371-32.654-13.363-46.272z"/></g><path d="m100.646 395.78c0-25.733 20.861-46.594 46.593-46.594h2.344v-341.684c-44.183 0-80 35.817-80 80v305.934c0 44.183 35.817 80 80 80v-31.062h-2.344c-25.733 0-46.593-20.861-46.593-46.594z" fill="#f6a96c"/><path d="m99.583 393.436v-305.934c0-33.574 20.682-62.317 50-74.185v-5.815c-44.183 0-80 35.817-80 80v305.934c0 44.183 35.817 80 80 80v-5.816c-29.318-11.868-50-40.61-50-74.184z" fill="#ea9b58"/><path d="m426.799 442.374h-279.56c-25.733 0-46.593-20.861-46.593-46.593 0-25.733 20.861-46.593 46.593-46.593h279.56c-20.781 31.28-20.635 62.341 0 93.186z" fill="#e5e1e5"/><path d="m255.957 504.498-31.062-31.062-31.215 31.062v-93.187h62.277z" fill="#e6646e"/><g><path d="m431.159 356.276c9.131.415 19.173-7.089 18.668-22.616v-310.63c0-12.699-10.331-23.03-23.03-23.03h-54.72c-4.143 0-7.5 3.357-7.5 7.5s3.357 7.5 7.5 7.5h54.72c4.428 0 8.03 3.603 8.03 8.03v310.63c0 4.428-3.603 8.03-8.03 8.03h-269.71v-76.36c0-4.143-3.358-7.5-7.5-7.5s-7.5 3.357-7.5 7.5v76.602c-27.365 2.567-48.94 26.274-48.94 53.849 0 29.825 24.265 54.09 54.09 54.09h38.943v16.07h-36.593c-39.977 0-72.5-32.523-72.5-72.5v-305.941c0-37.445 28.534-68.35 65-72.115v217.265c0 4.143 3.358 7.5 7.5 7.5s7.5-3.357 7.5-7.5v-217.65h182.311c4.143 0 7.5-3.357 7.5-7.5s-3.357-7.5-7.5-7.5h-189.811c-48.248 0-87.5 39.252-87.5 87.5v305.94c0 48.248 39.252 87.5 87.5 87.5h36.593v23.558c1.898 7.462 6.162 9.234 12.79 5.316l25.912-25.785 25.772 25.772c4.29 4.29 12.803 1.89 12.803-5.304v-23.557h45.52c4.143 0 7.5-3.357 7.5-7.5s-3.357-7.5-7.5-7.5h-45.52v-16.07h163.34c4.892.461 7.569 3.138 8.03 8.03 0 4.434-3.603 8.04-8.03 8.04h-85.14c-4.143 0-7.5 3.357-7.5 7.5s3.357 7.5 7.5 7.5h85.14c12.699 0 23.03-10.336 23.03-23.04 0-11.808-8.545-19.788-18.686-22.623-14.47-24.794-15.361-51.033.018-79.001zm-283.922 78.594c-21.554 0-39.09-17.535-39.09-39.09 0-21.322 17.768-39.09 39.09-39.09h266.469c-2.731 5.348-4.901 10.702-6.512 16.059h-257.61c-4.142 0-7.5 3.357-7.5 7.5s3.358 7.5 7.5 7.5h254.564c-.565 5.356-.571 10.712-.017 16.062h-254.548c-4.142 0-7.5 3.357-7.5 7.5s3.358 7.5 7.5 7.5h36.596v16.059zm101.22 51.522-18.259-18.26c-2.923-2.922-7.662-2.929-10.593-.013l-18.425 18.335v-67.643h47.277zm15-51.522v-16.059h143.698c1.608 5.362 3.78 10.716 6.517 16.059z"/><g><path d="m321.877 116.489c0-21.694-12.409-38.688-28.25-38.688s-28.25 16.993-28.25 38.688 12.409 38.688 28.25 38.688 28.25-16.994 28.25-38.688zm-41.5 0c0-13.959 6.983-23.688 13.25-23.688s13.25 9.729 13.25 23.688-6.983 23.688-13.25 23.688-13.25-9.729-13.25-23.688z"/><path d="m246.901 174.097c10.815-7.027 13.155-23.215 4.52-38.171-7.847-14.558-22.294-22.066-35.317-15.171-11.398 6.035-13.155 23.215-4.52 38.171 6.406 11.095 22.793 23.309 35.317 15.171zm-23.296-40.351c5.349-3.085 12.398 5.739 14.827 9.681 5.059 8.21 3.795 16.05.971 17.681-2.824 1.628-10.006-1.33-14.827-9.681-4.823-8.352-3.796-16.05-.971-17.681z"/><path d="m375.67 158.926c8.432-15.071 7.057-32.487-4.52-38.171-12.773-6.271-27.47.613-35.317 15.171-8.635 14.956-6.642 31.71 4.521 38.171 9.523 5.513 25.679 2.055 35.316-15.171zm-26.846-15.5c3.554-5.191 9.479-12.767 14.827-9.681 2.825 1.631 3.851 9.329-.97 17.681-4.822 8.351-12.003 11.31-14.827 9.681-2.825-1.631-3.852-9.329.97-17.681z"/><path d="m274.979 267.457c11.167-8.458 25.949-8.194 37.309.004 16.31 13.824 46.189 17.734 59.269-3.119 18.676-29.778-6.071-63.029-30.325-78.94-29.362-19.266-65.843-19.266-95.205 0-24.319 15.956-46.802 47.581-30.457 78.449 11.057 20.884 41.218 17.384 59.409 3.606zm-47.507-40.138c29.246-53.464 102.951-53.518 132.265-.092 3.693 7.791 4.371 20.758-.889 29.145-8.22 13.108-28.251 7.042-37.028-.495-14.716-12.642-41.597-12.699-56.374-.005-8.917 7.657-28.877 13.603-37.072.167-5.235-8.583-4.544-21.562-.902-28.72z"/></g></g></g></svg>