<svg id="Capa_1" enable-background="new 0 0 512 512" height="512" viewBox="0 0 512 512" width="512" xmlns="http://www.w3.org/2000/svg"><g><g><path clip-rule="evenodd" d="m325.86 375.64-69.874-23.132-69.846 23.132-25.569 73.788 92.523 18 98.306-18z" fill="#e2d8ec" fill-rule="evenodd"/></g><g><path clip-rule="evenodd" d="m325.86 375.64-69.874-23.131-69.846 23.131-8.476 24.464h112.564c13.72 0 13.011 3.884 17.461 16.81l13.21 38.099 30.501-5.584z" fill="#d5c6e4" fill-rule="evenodd"/></g><g><path clip-rule="evenodd" d="m351.4 449.428h-190.829-29.395c-12.387 0-22.535 10.148-22.535 22.536 0 12.416 10.148 22.536 22.535 22.536h249.648c12.387 0 22.535-10.12 22.535-22.536 0-12.388-10.148-22.536-22.535-22.536z" fill="#f9f3f1" fill-rule="evenodd"/></g><g><path clip-rule="evenodd" d="m403.359 471.964c0-12.388-10.148-22.536-22.535-22.536h-29.424-3.033c12.416 0 22.536 10.148 22.536 22.536 0 12.416-10.12 22.536-22.536 22.536h32.457c12.387 0 22.535-10.12 22.535-22.536z" fill="#e2d8ec" fill-rule="evenodd"/></g><g><path clip-rule="evenodd" d="m481.369 17.5h-450.738c-12.728 0-23.131 10.403-23.131 23.131v288.746l257.046 14.089 239.954-14.089v-288.746c0-12.728-10.403-23.131-23.131-23.131z" fill="#9dc6fb" fill-rule="evenodd"/></g><g><path clip-rule="evenodd" d="m504.5 329.377h-497v23.131c0 12.728 10.403 23.131 23.131 23.131h155.509 139.72 155.509c12.728 0 23.131-10.403 23.131-23.131z" fill="#f9f3f1" fill-rule="evenodd"/></g><g><path clip-rule="evenodd" d="m504.5 329.377v-288.746c0-12.728-10.403-23.131-23.131-23.131h-41.046c15.165 0 23.131 10.403 23.131 23.131v294.245z" fill="#80b4fb" fill-rule="evenodd"/></g><g><path clip-rule="evenodd" d="m504.5 329.377h-41.046v23.131c0 12.728-10.403 23.131-23.131 23.131h41.046c12.728 0 23.131-10.403 23.131-23.131z" fill="#e2d8ec" fill-rule="evenodd"/></g><g><path clip-rule="evenodd" d="m312.707 85.959c0-12.898-10.431-23.358-23.329-23.358s-23.358 10.46-23.358 23.358 10.46 23.358 23.358 23.358 23.329-10.46 23.329-23.358z" fill="#ff7e92" fill-rule="evenodd"/></g><g><path clip-rule="evenodd" d="m312.707 174.998c0-12.898-10.431-23.358-23.329-23.358s-23.358 10.46-23.358 23.358 10.46 23.358 23.358 23.358 23.329-10.46 23.329-23.358z" fill="#ff7e92" fill-rule="evenodd"/></g><g><path clip-rule="evenodd" d="m312.707 264.036c0-12.898-10.431-23.358-23.329-23.358s-23.358 10.46-23.358 23.358 10.46 23.358 23.358 23.358c12.898.001 23.329-10.46 23.329-23.358z" fill="#ff7e92" fill-rule="evenodd"/></g><g><path clip-rule="evenodd" d="m68.275 99.735c-8.787 4.195-11.055 17.689-5.074 30.105 5.953 12.388 17.915 19.021 26.674 14.797 8.787-4.224 11.055-17.689 5.102-30.105-5.981-12.387-17.943-19.02-26.702-14.797z" fill="#ffe077" fill-rule="evenodd"/></g><g><path clip-rule="evenodd" d="m140.672 66.484c-9.723 0-17.632 11.169-17.632 24.946 0 13.748 7.909 24.917 17.632 24.917 9.751 0 17.632-11.169 17.632-24.917 0-13.777-7.881-24.946-17.632-24.946z" fill="#ffe077" fill-rule="evenodd"/></g><g><path clip-rule="evenodd" d="m186.395 114.533c-5.981 12.416-3.713 25.881 5.074 30.105 8.759 4.224 20.721-2.409 26.702-14.797 5.953-12.416 3.685-25.909-5.074-30.105-8.787-4.224-20.749 2.409-26.702 14.797z" fill="#ffe077" fill-rule="evenodd"/></g><g><path clip-rule="evenodd" d="m140.304 148.748c-4.762 0-9.496 2.183-14.202 6.548l-20.211 18.709c-12.926 11.963-13.521 39.034 11.055 39.034 10.035 0 11.282-5.783 23.358-5.783s13.323 5.783 23.358 5.783c24.576 0 23.981-27.072 11.055-39.034l-20.211-18.709c-4.706-4.365-9.44-6.548-14.202-6.548z" fill="#ffe077" fill-rule="evenodd"/></g><g><path clip-rule="evenodd" d="m94.977 114.533c-5.981-12.388-17.943-19.021-26.702-14.797-1.786.85-3.288 2.069-4.535 3.6 6.945 1.276 14.088 7.115 18.284 15.846 4.734 9.893 4.28 20.467-.567 26.476 2.92.539 5.811.227 8.419-1.021 8.786-4.223 11.054-17.688 5.101-30.104z" fill="#ffd05b" fill-rule="evenodd"/></g><g><path clip-rule="evenodd" d="m136.987 67.051c12.614 9.837 11.565 43.57-2.58 47.68 1.956 1.049 4.054 1.616 6.265 1.616 9.751 0 17.632-11.169 17.632-24.917 0-13.777-7.88-24.946-17.632-24.946-1.247 0-2.494.198-3.685.567z" fill="#ffd05b" fill-rule="evenodd"/></g><g><path clip-rule="evenodd" d="m209.327 98.573c2.976 6.18 2.721 15.109-1.332 23.528-5.131 10.687-14.74 17.093-22.904 15.931 1.417 2.948 3.543 5.244 6.378 6.605 8.759 4.224 20.721-2.409 26.702-14.797 5.953-12.416 3.685-25.909-5.074-30.105-1.218-.595-2.494-.963-3.77-1.162z" fill="#ffd05b" fill-rule="evenodd"/></g><g><path clip-rule="evenodd" d="m140.304 148.748c-4.762 0-9.496 2.183-14.202 6.548l-2.239 2.069c3.94.624 7.852 2.75 11.735 6.35l20.211 18.709c8.306 7.682 11.509 21.601 6.265 30.558.482.028 1.02.057 1.587.057 24.576 0 23.981-27.072 11.055-39.034l-20.211-18.709c-4.705-4.365-9.439-6.548-14.201-6.548z" fill="#ffd05b" fill-rule="evenodd"/></g><g><path clip-rule="evenodd" d="m312.707 85.959c0-12.898-10.431-23.358-23.329-23.358-3.203 0-6.236.652-9.014 1.786 8.419 3.543 14.343 11.849 14.343 21.572 0 9.695-5.924 18.029-14.343 21.544 2.778 1.162 5.811 1.814 9.014 1.814 12.898 0 23.329-10.46 23.329-23.358z" fill="#ff5f7a" fill-rule="evenodd"/></g><g><path clip-rule="evenodd" d="m312.707 174.998c0-12.898-10.431-23.358-23.329-23.358-3.203 0-6.236.652-9.014 1.786 8.419 3.543 14.343 11.849 14.343 21.572 0 9.695-5.924 18.029-14.343 21.544 2.778 1.162 5.811 1.814 9.014 1.814 12.898 0 23.329-10.46 23.329-23.358z" fill="#ff5f7a" fill-rule="evenodd"/></g><g><path clip-rule="evenodd" d="m312.707 264.036c0-12.898-10.431-23.358-23.329-23.358-3.203 0-6.236.652-9.014 1.786 8.419 3.543 14.343 11.849 14.343 21.572 0 9.695-5.924 18.029-14.343 21.544 2.778 1.162 5.811 1.814 9.014 1.814 12.898.001 23.329-10.46 23.329-23.358z" fill="#ff5f7a" fill-rule="evenodd"/></g><g><path d="m481.369 10h-450.738c-16.89 0-30.631 13.741-30.631 30.631v311.877c0 16.891 13.741 30.632 30.631 30.632h144.972l-20.371 58.788h-24.056c-16.562 0-30.035 13.475-30.035 30.036s13.473 30.036 30.035 30.036h249.648c16.562 0 30.035-13.475 30.035-30.036s-13.474-30.036-30.035-30.036h-24.083l-20.348-58.788h144.976c16.89 0 30.631-13.741 30.631-30.632v-311.877c0-16.89-13.741-30.631-30.631-30.631zm-450.738 15h450.738c8.619 0 15.631 7.012 15.631 15.631v281.246h-482v-281.246c0-8.619 7.012-15.631 15.631-15.631zm450.738 343.14h-207.411c-4.143 0-7.5 3.357-7.5 7.5s3.357 7.5 7.5 7.5h46.561l20.348 58.788h-66.909c-4.143 0-7.5 3.357-7.5 7.5s3.357 7.5 7.5 7.5h106.866c8.29 0 15.035 6.745 15.035 15.036s-6.745 15.036-15.035 15.036h-249.648c-8.29 0-15.035-6.745-15.035-15.036s6.745-15.036 15.035-15.036h108.143c4.143 0 7.5-3.357 7.5-7.5s-3.357-7.5-7.5-7.5h-68.21l20.371-58.788h47.84c4.143 0 7.5-3.357 7.5-7.5s-3.357-7.5-7.5-7.5h-208.689c-8.619 0-15.631-7.013-15.631-15.632v-15.631h482v15.631c0 8.619-7.012 15.632-15.631 15.632z"/><path d="m352.364 289.395h50.854c4.143 0 7.5-3.357 7.5-7.5s-3.357-7.5-7.5-7.5h-50.854c-4.143 0-7.5 3.357-7.5 7.5s3.358 7.5 7.5 7.5z"/><path d="m352.364 253.677h93.26c4.143 0 7.5-3.357 7.5-7.5s-3.357-7.5-7.5-7.5h-93.26c-4.143 0-7.5 3.357-7.5 7.5s3.358 7.5 7.5 7.5z"/><path d="m352.364 77.754h93.26c4.143 0 7.5-3.357 7.5-7.5s-3.357-7.5-7.5-7.5h-93.26c-4.143 0-7.5 3.357-7.5 7.5s3.358 7.5 7.5 7.5z"/><path d="m352.364 200.356h50.854c4.143 0 7.5-3.357 7.5-7.5s-3.357-7.5-7.5-7.5h-50.854c-4.143 0-7.5 3.357-7.5 7.5s3.358 7.5 7.5 7.5z"/><path d="m352.364 113.444h50.854c4.143 0 7.5-3.357 7.5-7.5s-3.357-7.5-7.5-7.5h-50.854c-4.143 0-7.5 3.357-7.5 7.5s3.358 7.5 7.5 7.5z"/><path d="m352.364 164.639h93.26c4.143 0 7.5-3.357 7.5-7.5s-3.357-7.5-7.5-7.5h-93.26c-4.143 0-7.5 3.357-7.5 7.5s3.358 7.5 7.5 7.5z"/><path d="m193.481 244.177h-120.246c-4.143 0-7.5 3.357-7.5 7.5s3.357 7.5 7.5 7.5h120.246c4.143 0 7.5-3.357 7.5-7.5s-3.357-7.5-7.5-7.5z"/><path d="m163.435 279.895h-60.123c-4.143 0-7.5 3.357-7.5 7.5s3.357 7.5 7.5 7.5h60.123c4.143 0 7.5-3.357 7.5-7.5s-3.358-7.5-7.5-7.5z"/><path d="m140.672 123.847c14.093 0 25.132-14.239 25.132-32.418 0-18.193-11.039-32.445-25.132-32.445s-25.132 14.252-25.132 32.445c0 18.179 11.039 32.418 25.132 32.418zm0-49.863c4.782 0 10.132 7.461 10.132 17.445 0 9.969-5.35 17.418-10.132 17.418s-10.132-7.449-10.132-17.418c0-9.984 5.35-17.445 10.132-17.445z"/><path d="m188.211 151.393c2.875 1.386 5.925 2.045 9.017 2.045 10.553-.001 21.587-7.68 27.707-20.355 3.542-7.389 4.825-15.423 3.612-22.623-1.354-8.046-5.805-14.42-12.209-17.487-6.408-3.077-14.166-2.575-21.29 1.373-6.393 3.543-11.866 9.559-15.409 16.933-3.561 7.391-4.854 15.426-3.641 22.625 1.354 8.034 5.809 14.41 12.213 17.489zm4.944-33.612c2.18-4.536 5.521-8.297 9.164-10.316 1.166-.646 3.086-1.504 5.061-1.504.831 0 1.671.151 2.468.535.004.001.007.003.01.004 2.661 1.274 3.585 4.589 3.898 6.451.692 4.116-.162 9.091-2.338 13.629-4.338 8.983-12.392 13.377-16.7 11.298-2.688-1.292-3.614-4.605-3.928-6.467-.692-4.105.169-9.071 2.365-13.63z"/><path d="m76.263 152.016c2.636.924 5.308 1.383 7.911 1.383 3.144 0 6.188-.67 8.95-2.002 12.69-6.1 16.475-23.717 8.607-40.125-7.904-16.37-24.027-24.403-36.705-18.296-5.061 2.422-8.971 6.951-11.012 12.754-2.884 8.199-1.998 18.174 2.427 27.358 4.401 9.161 11.625 16.059 19.822 18.928zm-8.098-41.308c.503-1.43 1.49-3.319 3.342-4.203.009-.005.018-.009.026-.014.707-.341 1.515-.507 2.392-.507 4.455 0 10.673 4.3 14.29 11.791 4.44 9.263 2.727 18.028-1.598 20.106-1.854.896-3.958.482-5.398-.022-4.334-1.518-8.647-5.834-11.261-11.273-2.631-5.461-3.317-11.545-1.793-15.878z"/><path d="m116.946 220.54c6.466 0 10.471-1.89 13.688-3.408 2.921-1.379 5.032-2.375 9.669-2.375 4.636 0 6.747.996 9.668 2.375 3.218 1.519 7.223 3.408 13.689 3.408 12.284 0 21.567-5.715 25.471-15.679 4.545-11.604.538-27.235-9.321-36.359l-20.204-18.703c-6.114-5.674-12.609-8.551-19.303-8.551s-13.188 2.877-19.297 8.545l-20.211 18.709c-9.859 9.124-13.866 24.756-9.32 36.36 3.904 9.963 13.187 15.678 25.471 15.678zm-5.961-41.031 20.218-18.715c3.251-3.017 6.313-4.547 9.101-4.547s5.849 1.529 9.106 4.553l20.212 18.71c5.395 4.992 7.881 13.91 5.543 19.88-.596 1.521-2.409 6.149-11.504 6.149-3.104 0-4.68-.743-7.288-1.974-3.596-1.697-8.072-3.81-16.069-3.81-7.998 0-12.475 2.112-16.071 3.81-2.607 1.23-4.182 1.974-7.286 1.974-9.095 0-10.908-4.628-11.504-6.149-2.339-5.969.147-14.888 5.542-19.881z"/><path d="m289.378 116.817c16.999 0 30.829-13.843 30.829-30.858s-13.83-30.859-30.829-30.859c-17.015 0-30.857 13.843-30.857 30.858s13.842 30.859 30.857 30.859zm0-46.717c8.729 0 15.829 7.114 15.829 15.858s-7.101 15.858-15.829 15.858c-8.744 0-15.857-7.114-15.857-15.858s7.113-15.858 15.857-15.858z"/><path d="m289.378 205.856c16.999 0 30.829-13.843 30.829-30.858s-13.83-30.858-30.829-30.858c-17.015 0-30.857 13.843-30.857 30.858s13.842 30.858 30.857 30.858zm0-46.717c8.729 0 15.829 7.114 15.829 15.858s-7.101 15.858-15.829 15.858c-8.744 0-15.857-7.114-15.857-15.858s7.113-15.858 15.857-15.858z"/><path d="m289.378 294.895c16.999 0 30.829-13.843 30.829-30.858s-13.83-30.858-30.829-30.858c-17.015 0-30.857 13.843-30.857 30.858s13.842 30.858 30.857 30.858zm0-46.717c8.729 0 15.829 7.114 15.829 15.858s-7.101 15.858-15.829 15.858c-8.744 0-15.857-7.114-15.857-15.858s7.113-15.858 15.857-15.858z"/></g></g></svg>