<svg id="Capa_1" enable-background="new 0 0 511.934 511.934" height="512" viewBox="0 0 511.934 511.934" width="512" xmlns="http://www.w3.org/2000/svg"><g><g><path d="m291.941 477.403c-23.473-6.638-48.474-6.638-71.947 0-60.969 17.242-122.225-26.135-122.225-86.551 0-54.965 26.027-107.015 70.879-141.751l26.069-20.189c35.658-27.615 86.844-27.615 122.502 0l26.069 20.189c44.852 34.736 70.879 86.787 70.879 141.751-.001 60.416-61.257 103.793-122.226 86.551z" fill="#537983"/><path d="m414.167 390.847c0 51.34-44.23 90.37-94.92 90.37-6.83 0-13.78-.71-20.75-2.19 41.48-8.88 74.28-43.97 74.28-88.18 0-54.96-26.03-107.01-70.88-141.75l-26.07-20.19c-12.13-9.39-26.05-15.58-40.55-18.59 28.12-5.83 58.41.37 81.94 18.59l26.07 20.19c44.85 34.74 70.88 86.79 70.88 141.75z" fill="#4b6f77"/><path d="m333.238 179.082c-30.562-9.128-51.504-37.24-51.504-69.136v-29.743c0-33.049 31.838-56.767 63.504-47.309 30.562 9.128 51.504 37.24 51.504 69.136v29.743c0 33.049-31.838 56.767-63.504 47.309z" fill="#537983"/><path d="m396.747 102.027v29.75c0 33.05-31.84 56.76-63.51 47.3-2.78-.83-5.48-1.82-8.09-2.95 16.12-7.92 27.67-24.44 27.67-44.35v-29.75c0-15.94-5.23-30.94-14.29-43.1-7.41-9.95-17.38-17.99-29.13-23.08 10.63-5.23 23.25-6.71 35.84-2.95 15.28 4.57 28.16 13.87 37.21 26.03 9.06 12.16 14.3 27.16 14.3 43.1z" fill="#4b6f77"/><path d="m441.627 291.654c-21.134-12.331-31.665-37.076-25.898-60.855l5.378-22.175c5.976-24.639 34-36.565 55.898-23.788 21.134 12.331 31.665 37.076 25.898 60.855l-5.378 22.175c-5.975 24.639-34 36.565-55.898 23.788z" fill="#537983"/><path d="m504.467 232.647c0 4.32-.51 8.7-1.56 13.04l-5.38 22.18c-5.86 24.14-32.86 36.07-54.55 24.54 9.14-4.83 16.37-13.38 19.07-24.54l5.38-22.18c1.05-4.35 1.56-8.73 1.56-13.06 0-19.35-10.18-37.71-27.46-47.79-.45-.26-.91-.52-1.36-.75 11.03-5.84 24.85-6.24 36.84.75 17.27 10.08 27.46 28.45 27.46 47.81z" fill="#4b6f77"/><path d="m70.307 291.654c21.134-12.331 31.665-37.076 25.898-60.855l-5.378-22.175c-5.976-24.639-34-36.565-55.899-23.788-21.134 12.331-31.665 37.076-25.898 60.855l5.378 22.175c5.976 24.639 34.001 36.565 55.899 23.788z" fill="#537983"/><path d="m70.307 291.657c-11.98 6.99-25.8 6.58-36.83.75.45-.24.9-.49 1.35-.75 21.14-12.33 31.67-37.08 25.9-60.86l-5.38-22.17c-2.7-11.16-9.93-19.71-19.06-24.54 21.69-11.53 48.68.41 54.54 24.54l5.38 22.17c5.76 23.78-4.77 48.53-25.9 60.86z" fill="#4b6f77"/><path d="m178.696 179.082c30.562-9.128 51.504-37.24 51.504-69.136v-29.743c0-33.049-31.838-56.767-63.504-47.309-30.562 9.128-51.504 37.24-51.504 69.136v29.743c0 33.049 31.837 56.767 63.504 47.309z" fill="#537983"/><path d="m230.197 80.207v29.74c0 31.9-20.94 60.01-51.5 69.13-12.59 3.76-25.2 2.28-35.83-2.95 26.11-11.32 43.41-37.18 43.41-66.18v-29.74c0-19.91-11.55-36.43-27.66-44.36 2.61-1.13 5.3-2.12 8.08-2.95 31.67-9.46 63.5 14.26 63.5 47.31z" fill="#4b6f77"/><path d="m329.096 299.22c-16.507-16.507-43.27-16.507-59.776 0l-6.544 6.544c-3.76 3.76-9.857 3.76-13.617 0l-6.544-6.544c-16.507-16.507-43.27-16.507-59.776 0-16.507 16.507-16.507 43.27 0 59.776l62.046 62.046c6.121 6.121 16.045 6.121 22.166 0l62.046-62.046c16.505-16.506 16.505-43.269-.001-59.776z" fill="#eb5569"/><path d="m329.093 359.003-62.05 62.04c-6.12 6.12-16.04 6.12-22.16 0l-11.97-11.97 52.72-52.73c16.51-16.5 16.51-43.27 0-59.77-1.69-1.69-3.58-3.41-5.62-5.13 15.88-8.1 35.8-5.5 49.08 7.78 16.51 16.51 16.51 43.27 0 59.78z" fill="#e53950"/></g><g><path d="m347.879 243.171-26.069-20.189c-33.866-26.227-81.785-29.56-119.238-8.292-3.602 2.045-4.864 6.624-2.818 10.226s6.624 4.863 10.226 2.818c32.254-18.317 73.506-15.461 102.646 7.108l26.069 20.189c43.197 33.454 67.971 82.959 67.971 135.822 0 25.29-11.97 48.848-32.842 64.636-22.46 16.99-52.31 22.485-79.842 14.698-24.87-7.033-51.16-7.033-76.029 0-27.532 7.787-57.381 2.292-79.842-14.698-20.872-15.788-32.842-39.347-32.842-64.636 0-52.862 24.774-102.368 67.971-135.821l9.173-7.104c3.275-2.536 3.874-7.247 1.337-10.522-2.536-3.275-7.249-3.875-10.522-1.337l-9.173 7.104c-46.893 36.316-73.787 90.144-73.787 147.681 0 30.031 14.139 57.951 38.792 76.599 18.367 13.893 40.948 21.199 63.848 21.199 9.751 0 19.56-1.325 29.125-4.03 22.198-6.277 45.666-6.278 67.865 0 9.567 2.706 19.373 4.031 29.125 4.03 22.898-.001 45.483-7.308 63.848-21.199 24.653-18.648 38.792-46.567 38.792-76.599.003-57.54-26.891-111.367-73.784-147.683z"/><path d="m331.091 186.269c5.438 1.624 10.965 2.423 16.442 2.423 12.032 0 23.813-3.86 33.812-11.31 14.551-10.84 22.896-27.464 22.896-45.609v-29.743c0-17.276-5.456-33.731-15.777-47.586s-24.527-23.792-41.081-28.736c-17.387-5.192-35.704-1.954-50.254 8.886-14.551 10.84-22.897 27.464-22.897 45.609v29.743c0 17.276 5.456 33.731 15.777 47.586 10.323 13.855 24.529 23.792 41.082 28.737zm-41.857-106.066c0-13.359 6.145-25.599 16.858-33.58 7.363-5.485 16.035-8.327 24.894-8.327 4.032 0 8.103.589 12.106 1.785 27.173 8.116 46.15 33.59 46.15 61.949v29.743c0 13.359-6.145 25.599-16.858 33.58-10.713 7.982-24.199 10.367-37 6.542-27.173-8.116-46.15-33.59-46.15-61.949z"/><path d="m480.785 178.358c-19.373-11.303-44.496-6.586-58.437 10.971-2.576 3.244-2.034 7.961 1.21 10.537s7.961 2.034 10.537-1.21c9.334-11.755 26.159-14.911 39.13-7.342 18.129 10.578 27.336 32.212 22.389 52.61l-5.378 22.175c-2.284 9.418-8.709 16.996-17.626 20.792-8.917 3.795-18.833 3.17-27.204-1.714-18.129-10.578-27.335-32.212-22.389-52.61l.684-2.821c.976-4.025-1.496-8.08-5.521-9.056s-8.08 1.496-9.056 5.521l-.684 2.821c-6.498 26.792 5.595 55.208 29.407 69.101 7.094 4.139 14.928 6.23 22.814 6.23 6.014 0 12.059-1.217 17.823-3.67 13.321-5.669 22.918-16.989 26.33-31.059l5.378-22.175c6.498-26.792-5.595-55.208-29.407-69.101z"/><path d="m103.493 229.031-5.378-22.175c-3.412-14.069-13.009-25.39-26.33-31.059-13.321-5.668-28.132-4.735-40.637 2.561-23.811 13.893-35.904 42.309-29.406 69.101l5.378 22.175c3.412 14.069 13.009 25.39 26.33 31.059 5.765 2.453 11.808 3.67 17.823 3.67 7.885 0 15.721-2.091 22.814-6.23 23.812-13.895 35.904-42.311 29.406-69.102zm-36.966 56.145c-8.37 4.884-18.285 5.509-27.204 1.714-8.917-3.795-15.342-11.374-17.626-20.792l-5.378-22.175c-4.947-20.398 4.26-42.032 22.389-52.61 4.749-2.771 9.994-4.171 15.273-4.171 4.026 0 8.072.815 11.931 2.457 8.917 3.795 15.342 11.374 17.626 20.792l5.378 22.175c4.947 20.398-4.26 42.032-22.389 52.61z"/><path d="m130.588 177.382c10 7.45 21.779 11.31 33.812 11.31 5.476 0 11.004-.799 16.442-2.423 16.554-4.944 30.759-14.881 41.081-28.736 10.321-13.854 15.777-30.31 15.777-47.586v-29.744c0-18.145-8.346-34.769-22.897-45.609-14.55-10.841-32.868-14.08-50.254-8.886-16.554 4.944-30.759 14.881-41.081 28.736-10.321 13.854-15.777 30.31-15.777 47.586v29.743c.001 18.145 8.346 34.769 22.897 45.609zm-7.896-75.352c0-28.359 18.978-53.833 46.15-61.949 4.004-1.196 8.074-1.785 12.106-1.785 8.859 0 17.532 2.842 24.894 8.327 10.713 7.981 16.858 20.221 16.858 33.58v29.743c0 28.359-18.978 53.834-46.15 61.949-12.802 3.824-26.287 1.439-37-6.542s-16.858-20.221-16.858-33.58z"/><path d="m309.279 368.207c-2.929 2.929-2.929 7.678 0 10.606 2.929 2.929 7.678 2.929 10.606 0l14.513-14.514c9.4-9.4 14.577-21.897 14.577-35.191s-5.177-25.792-14.577-35.192c-19.404-19.404-50.978-19.404-70.383 0l-6.543 6.544c-.832.83-2.183.829-3.011 0l-6.544-6.544c-19.405-19.405-50.979-19.403-70.383 0-9.4 9.4-14.577 21.898-14.577 35.191s5.177 25.792 14.577 35.191l62.046 62.045c4.518 4.518 10.452 6.777 16.386 6.777s11.869-2.259 16.386-6.777l22.954-22.954c2.929-2.929 2.929-7.678 0-10.606-2.929-2.929-7.678-2.929-10.606 0l-22.954 22.954c-3.188 3.187-8.372 3.187-11.56 0l-62.046-62.045c-6.567-6.567-10.184-15.298-10.184-24.585s3.617-18.018 10.184-24.585c13.556-13.556 35.614-13.556 49.169 0 3.433 3.29 4.703 5.007 8.153 7.946l-13.777 13.777c-2.929 2.929-2.929 7.678 0 10.606 1.464 1.465 3.384 2.197 5.303 2.197s3.839-.732 5.303-2.197l32.33-32.33c13.557-13.556 35.614-13.555 49.17 0 6.567 6.567 10.184 15.298 10.184 24.585s-3.617 18.018-10.184 24.584z"/></g></g></svg>