<svg id="Layer_3" enable-background="new 0 0 64 64" height="512" viewBox="0 0 64 64" width="512" xmlns="http://www.w3.org/2000/svg"><g><g><path d="m56 54c1.105 0 2-.895 2-2v-46h-52v46c0 1.105.895 2 2 2z" fill="#f5ba5b"/></g><g><path d="m6 52c0 1.105.895 2 2 2h10.948c11.71-7.229 19.517-20.172 19.517-34.944 0-4.566-.757-8.953-2.133-13.056h-30.332z" fill="#f8cf6a"/></g><g><path d="m50 62h-36c-2.209 0-4-1.791-4-4v-8h44v8c0 2.209-1.791 4-4 4z" fill="#243242"/></g><g><path d="m10 50v8c0 .042.011.081.012.122 5.35-1.722 10.215-4.514 14.355-8.122z" fill="#4d5d7a"/></g><g><path d="m40.961 28.221c-.396-4.605-4.254-8.221-8.961-8.221s-8.565 3.616-8.961 8.221c-4.026.895-7.039 4.483-7.039 8.779 0 4.971 4.029 9 9 9 2.829 0 5.35-1.308 7-3.349 1.65 2.041 4.171 3.349 7 3.349 4.971 0 9-4.029 9-9 0-4.296-3.013-7.884-7.039-8.779z" fill="#d5cec2"/></g><g><path d="m38.303 22.591c-1.623-1.599-3.844-2.591-6.303-2.591-4.707 0-8.565 3.616-8.961 8.221-4.026.895-7.039 4.483-7.039 8.779 0 4.971 4.029 9 9 9 1.565 0 3.029-.412 4.31-1.115 5.025-6.195 8.274-13.882 8.993-22.294z" fill="#e7e4dd"/></g><g><ellipse cx="38.464" cy="13.536" fill="#d5cec2" rx="4" ry="3" transform="matrix(.707 -.707 .707 .707 1.695 31.163)"/></g><g><path d="m37.566 10.508c-.43.229-.846.529-1.224.907-1.562 1.562-1.879 3.778-.707 4.95.682.682 1.719.845 2.774.567-.111-2.193-.4-4.337-.843-6.424z" fill="#e7e4dd"/></g><g><path d="m60 6h-56c-1.105 0-2-.895-2-2 0-1.105.895-2 2-2h56c1.105 0 2 .895 2 2 0 1.105-.895 2-2 2z" fill="#243242"/></g><g><path d="m34.75 2h-30.75c-1.105 0-2 .895-2 2s.895 2 2 2h32.331c-.459-1.367-.986-2.701-1.581-4z" fill="#4d5d7a"/></g><g><path d="m53 40h5v6h-5z" fill="#243242"/></g><g><ellipse cx="47.536" cy="21.607" fill="#d5cec2" rx="4" ry="3" transform="matrix(.707 -.707 .707 .707 -1.356 39.942)"/></g><g><ellipse cx="25.464" cy="13.536" fill="#e7e4dd" rx="3" ry="4" transform="matrix(.707 -.707 .707 .707 -2.113 21.971)"/></g><g><ellipse cx="16.536" cy="21.607" fill="#e7e4dd" rx="3" ry="4" transform="matrix(.707 -.707 .707 .707 -10.435 18.021)"/></g><g><path d="m10 58h44c0 2.209-1.791 4-4 4h-36c-2.209 0-4-1.791-4-4z" fill="#d5cec2"/></g><g><path d="m60 7h-56c-1.654 0-3-1.346-3-3s1.346-3 3-3h56c1.654 0 3 1.346 3 3s-1.346 3-3 3zm-56-4c-.551 0-1 .448-1 1s.449 1 1 1h56c.551 0 1-.448 1-1s-.449-1-1-1z"/></g><g><path d="m56 55h-2v-2h2c.551 0 1-.448 1-1v-45h-50v45c0 .552.449 1 1 1h2v2h-2c-1.654 0-3-1.346-3-3v-46c0-.553.448-1 1-1h52c.552 0 1 .447 1 1v46c0 1.654-1.346 3-3 3z"/></g><g><path d="m50 63h-36c-2.757 0-5-2.243-5-5v-8c0-.553.448-1 1-1h44c.552 0 1 .447 1 1v8c0 2.757-2.243 5-5 5zm-39-12v7c0 1.654 1.346 3 3 3h36c1.654 0 3-1.346 3-3v-7z"/></g><g><path d="m37.466 18.062c-.968 0-1.871-.323-2.538-.99-1.559-1.56-1.242-4.415.707-6.364 1.95-1.95 4.805-2.267 6.365-.708 1.56 1.56 1.242 4.414-.707 6.364-1.117 1.116-2.53 1.698-3.827 1.698zm1.993-7.064c-.768 0-1.683.396-2.41 1.123-1.149 1.15-1.473 2.77-.707 3.536.767.768 2.386.443 3.536-.707 1.149-1.15 1.474-2.77.707-3.536-.281-.281-.679-.416-1.126-.416z"/></g><g><path d="m46.552 26.143c-.996 0-1.903-.351-2.552-1-.783-.783-1.131-1.941-.955-3.177.164-1.147.754-2.279 1.662-3.187 1.949-1.948 4.802-2.267 6.364-.708 1.559 1.56 1.242 4.415-.707 6.364-.908.908-2.04 1.498-3.187 1.662-.211.031-.42.046-.625.046zm1.979-7.074c-.768 0-1.683.396-2.41 1.124-.595.595-.994 1.344-1.096 2.055-.051.357-.068 1.023.389 1.48s1.121.438 1.48.389c.711-.102 1.46-.501 2.056-1.096 1.149-1.15 1.473-2.77.707-3.536-.282-.281-.679-.416-1.126-.416z"/></g><g><path d="m26.462 18.062c-1.296 0-2.71-.581-3.827-1.697-1.948-1.95-2.265-4.805-.706-6.365 1.559-1.559 4.415-1.242 6.364.707 1.949 1.95 2.267 4.805.707 6.364-.667.666-1.57.991-2.538.991zm-2.412-3.112c1.15 1.148 2.768 1.474 3.536.707.767-.767.443-2.386-.707-3.536-1.149-1.15-2.768-1.471-3.536-.707-.766.767-.443 2.386.707 3.536z"/></g><g><path d="m17.519 26.143c-.205 0-.414-.015-.625-.045-1.148-.164-2.28-.754-3.187-1.662-1.949-1.95-2.267-4.805-.707-6.364 1.559-1.559 4.414-1.241 6.364.708 1.949 1.948 2.267 4.803.707 6.363-.649.649-1.556 1-2.552 1zm-1.978-7.074c-.447 0-.844.135-1.126.416-.767.767-.443 2.386.707 3.536.595.595 1.344.994 2.056 1.096.356.051 1.022.069 1.48-.389.766-.767.443-2.386-.707-3.535-.728-.726-1.642-1.124-2.41-1.124z"/></g><g><path d="m39 47c-2.644 0-5.138-1.031-7-2.862-1.862 1.831-4.356 2.862-7 2.862-5.514 0-10-4.486-10-10 0-4.405 2.958-8.322 7.13-9.575.763-4.779 4.967-8.425 9.87-8.425s9.107 3.646 9.87 8.425c4.172 1.253 7.13 5.17 7.13 9.575 0 5.514-4.486 10-10 10zm-7-5.349c.302 0 .588.137.778.371 1.529 1.893 3.797 2.978 6.222 2.978 4.411 0 8-3.589 8-8 0-3.715-2.631-6.997-6.257-7.803-.426-.096-.742-.456-.779-.891-.352-4.097-3.85-7.306-7.964-7.306s-7.612 3.209-7.964 7.307c-.037.435-.353.795-.779.891-3.626.805-6.257 4.087-6.257 7.802 0 4.411 3.589 8 8 8 2.425 0 4.693-1.085 6.222-2.978.19-.234.476-.371.778-.371z"/></g><g><path d="m10 57h44v2h-44z"/></g><g><path d="m31 58h2v4h-2z"/></g><g><path d="m27 58h2v4h-2z"/></g><g><path d="m23 58h2v4h-2z"/></g><g><path d="m19 58h2v4h-2z"/></g><g><path d="m15 58h2v4h-2z"/></g><g><path d="m47 58h2v4h-2z"/></g><g><path d="m43 58h2v4h-2z"/></g><g><path d="m39 58h2v4h-2z"/></g><g><path d="m35 58h2v4h-2z"/></g><g><path d="m58 47h-5c-.552 0-1-.447-1-1v-6c0-.553.448-1 1-1h5v2h-4v4h4z"/></g></g></svg>