<?xml version="1.0" encoding="iso-8859-1"?>
<!-- Generator: Adobe Illustrator 19.0.0, SVG Export Plug-In . SVG Version: 6.00 Build 0)  -->
<svg version="1.1" id="Capa_1" xmlns="http://www.w3.org/2000/svg" xmlns:xlink="http://www.w3.org/1999/xlink" x="0px" y="0px"
	 viewBox="0 0 512 512" style="enable-background:new 0 0 512 512;" xml:space="preserve">
<g>
	<g>
		<path d="M426.667,341.333H85.333C38.4,341.333,0,379.733,0,426.667S38.4,512,85.333,512h341.333C473.6,512,512,473.6,512,426.667
			S473.6,341.333,426.667,341.333z"/>
	</g>
</g>
<g>
	<g>
		<path d="M339.2,213.333H170.667c-46.933,0-85.333,38.4-85.333,85.333c0,6.4,2.133,14.933,2.133,21.333H422.4
			c2.133-6.4,2.133-14.933,2.133-21.333C424.533,251.733,386.133,213.333,339.2,213.333z"/>
	</g>
</g>
<g>
	<g>
		<path d="M343.467,147.2C326.4,81.067,247.467,46.933,243.2,44.8c-17.067-6.4-36.267,12.8-27.733,29.867
			C224,96,215.467,121.6,198.4,134.4c-17.067,14.933-25.6,36.267-25.6,57.6h170.667C347.733,177.067,347.733,162.133,343.467,147.2z
			"/>
	</g>
</g>
<g>
	<g>
		<circle cx="405.333" cy="85.333" r="21.333"/>
	</g>
</g>
<g>
	<g>
		<circle cx="149.333" cy="21.333" r="21.333"/>
	</g>
</g>
<g>
	<g>
		<circle cx="64" cy="170.667" r="21.333"/>
	</g>
</g>
<g>
</g>
<g>
</g>
<g>
</g>
<g>
</g>
<g>
</g>
<g>
</g>
<g>
</g>
<g>
</g>
<g>
</g>
<g>
</g>
<g>
</g>
<g>
</g>
<g>
</g>
<g>
</g>
<g>
</g>
</svg>
