<svg id="Capa_1" enable-background="new 0 0 509.256 509.256" height="512" viewBox="0 0 509.256 509.256" width="512" xmlns="http://www.w3.org/2000/svg"><g><g><path d="m436.128 433.527h-393l.5-194.99 48.13-44.76 98.63-91.73c4.22-3.93 10.74-3.99 15.04-.15l28.15 25.13c4.24 3.78 10.64 3.78 14.88-.01l104.88-93.77c4.85-4.34 12.37-3.62 16.32 1.55l65.67 86.02z" fill="#fe646f"/><path d="m436.128 293.527v139.83h-392.5l-.38-47.76-.28-35.82.38-.39 30.02-30.84 18.39-18.89 19.56-20.1c4.31-4.43 11.4-4.51 15.81-.19l33.23 32.57c4.7 4.61 12.35 4.17 16.49-.95l52.76-65.16c4.06-5.03 11.54-5.56 16.28-1.15l25.07 23.33c4.89 4.54 12.64 3.81 16.6-1.56l53.77-72.97c4.4-5.98 13.31-6.07 17.84-.18z" fill="#ffd064"/><path d="m73.588 210.677-.46 222.85h-30l.5-194.99z" fill="#fd4755"/><path d="m73.368 318.547-.24 114.81v.17h-30l.12-47.93.1-36.21z" fill="#ffc344"/></g><g><path d="m501.756 425.858h-451.286v-73.034l66.225-68.036c.925-.951 2.017-1.104 2.586-1.11.554.009 1.653.121 2.598 1.047l33.228 32.567c3.746 3.675 8.901 5.612 14.138 5.308 5.239-.302 10.137-2.815 13.434-6.892l52.768-65.169c.865-1.071 1.984-1.302 2.575-1.344.592-.044 1.742.028 2.76.975l25.069 23.318c3.892 3.622 9.155 5.419 14.45 4.923 5.293-.493 10.139-3.231 13.297-7.515l22.351-30.34c2.457-3.335 1.745-8.03-1.59-10.487-3.332-2.455-8.029-1.745-10.486 1.59l-22.349 30.337c-.852 1.154-2.004 1.422-2.615 1.479-.613.057-1.791.008-2.84-.97l-25.07-23.319c-3.778-3.515-8.887-5.328-14.044-4.954-5.141.366-9.944 2.876-13.173 6.875l-52.764 65.164c-.886 1.095-2.03 1.317-2.634 1.352-.603.034-1.766-.055-2.773-1.043l-33.226-32.565c-3.564-3.5-8.235-5.376-13.275-5.338-5.001.058-9.677 2.064-13.163 5.648l-55.477 56.994v-88.901l95.716-89.017c3.033-2.821 3.205-7.567.385-10.6s-7.565-3.206-10.6-.385l-85.501 79.517v-191.073c0-4.142-3.357-7.5-7.5-7.5s-7.5 3.358-7.5 7.5v318.984.055 75.958h-27.97c-4.143 0-7.5 3.358-7.5 7.5s3.357 7.5 7.5 7.5h27.97v37.993c0 4.142 3.357 7.5 7.5 7.5s7.5-3.358 7.5-7.5v-37.993h451.286c4.143 0 7.5-3.358 7.5-7.5s-3.358-7.499-7.5-7.499z"/><path d="m306.587 85.11 51.752-46.272c1.038-.929 2.189-.976 2.789-.917.596.056 1.721.317 2.569 1.43l65.67 86.02c1.476 1.934 3.708 2.949 5.967 2.949 1.587 0 3.187-.502 4.545-1.539 3.293-2.514 3.924-7.22 1.41-10.513l-65.667-86.017c-3.146-4.126-7.912-6.773-13.076-7.264-5.17-.491-10.344 1.213-14.207 4.67l-51.75 46.27c-3.088 2.761-3.353 7.502-.592 10.59 2.761 3.089 7.502 3.354 10.59.593z"/><path d="m171.075 130.251 24.424-22.713c1.392-1.298 3.514-1.322 4.933-.055l28.156 25.145c3.543 3.159 7.983 4.737 12.424 4.737 4.449 0 8.899-1.585 12.444-4.754l27.79-24.84c3.089-2.76 3.354-7.501.594-10.59-2.759-3.087-7.501-3.355-10.59-.594l-27.79 24.84c-1.394 1.246-3.496 1.247-4.886.008l-28.15-25.141c-7.236-6.46-18.046-6.347-25.144.262l-24.42 22.71c-3.033 2.821-3.205 7.566-.385 10.6 2.821 3.033 7.567 3.206 10.6.385z"/><path d="m365.113 188.727c-3.611-4.696-9.093-7.384-15.001-7.289-5.917.063-11.32 2.832-14.822 7.591l-11.23 15.24c-2.457 3.334-1.746 8.03 1.589 10.487 3.336 2.459 8.03 1.746 10.487-1.588l11.233-15.245c.938-1.276 2.222-1.479 2.903-1.486.693.022 1.979.171 2.947 1.429l76.96 100.23c1.477 1.924 3.702 2.933 5.954 2.933 1.594 0 3.2-.506 4.562-1.552 3.285-2.522 3.904-7.231 1.381-10.516z"/></g></g></svg>